<svg width="155" height="32" viewBox="0 0 155 32" fill="none" xmlns="http://www.w3.org/2000/svg">
<mask id="mask0_1061_123" style="mask-type:alpha" maskUnits="userSpaceOnUse" x="0" y="0" width="155" height="32">
<rect width="155" height="32" fill="white"/>
</mask>
<g mask="url(#mask0_1061_123)">
<mask id="mask1_1061_123" style="mask-type:alpha" maskUnits="userSpaceOnUse" x="-229" y="0" width="1280" height="32">
<path d="M3 1H18.0994L3 16V1Z" fill="#E84ACE"/>
<path d="M18.0994 16H3V31H18.0994V16Z" fill="#E84ACE"/>
<path d="M42.8613 22.1056H52.984V19.3672H46.2046V6.39648H42.8613V22.1056Z" fill="#062D0D"/>
<path d="M59.843 22.3372C63.4412 22.3372 65.6804 19.8903 65.6804 16.2622C65.6804 12.6111 63.4412 10.1719 59.843 10.1719C56.2451 10.1719 54.0059 12.6111 54.0059 16.2622C54.0059 19.8903 56.2451 22.3372 59.843 22.3372ZM59.8584 19.806C58.1984 19.806 57.3492 18.2949 57.3492 16.2392C57.3492 14.1835 58.1984 12.6648 59.8584 12.6648C61.4876 12.6648 62.3371 14.1835 62.3371 16.2392C62.3371 18.2949 61.4876 19.806 59.8584 19.806Z" fill="#062D0D"/>
<path d="M72.5096 26.7708C75.8995 26.7708 78.3084 25.2366 78.3084 22.2222V10.3253H75.0424V12.3043H74.9189C74.4786 11.3455 73.5135 10.1719 71.5291 10.1719C68.9272 10.1719 66.7266 12.1815 66.7266 16.1932C66.7266 20.1128 68.8652 21.9384 71.5369 21.9384C73.4286 21.9384 74.4865 20.9949 74.9189 20.0208H75.0578V22.1761C75.0578 23.7946 74.0154 24.4236 72.587 24.4236C71.1353 24.4236 70.4018 23.7946 70.1315 23.0813L67.0896 23.4878C67.4833 25.344 69.3131 26.7708 72.5096 26.7708ZM72.5794 19.4838C70.9656 19.4838 70.0853 18.2105 70.0853 16.1778C70.0853 14.1759 70.9502 12.7722 72.5794 12.7722C74.1775 12.7722 75.0732 14.1145 75.0732 16.1778C75.0732 18.2565 74.1621 19.4838 72.5794 19.4838Z" fill="#062D0D"/>
<path d="M85.634 22.3372C89.2322 22.3372 91.4714 19.8903 91.4714 16.2622C91.4714 12.6111 89.2322 10.1719 85.634 10.1719C82.0358 10.1719 79.7969 12.6111 79.7969 16.2622C79.7969 19.8903 82.0358 22.3372 85.634 22.3372ZM85.6494 19.806C83.9894 19.806 83.1402 18.2949 83.1402 16.2392C83.1402 14.1835 83.9894 12.6648 85.6494 12.6648C87.2786 12.6648 88.1281 14.1835 88.1281 16.2392C88.1281 18.2949 87.2786 19.806 85.6494 19.806Z" fill="#062D0D"/>
<path d="M92.9575 22.1065H96.2468V10.3247H92.9575V22.1065ZM94.61 8.80597C95.5905 8.80597 96.3935 8.06194 96.3935 7.14916C96.3935 6.24403 95.5905 5.5 94.61 5.5C93.637 5.5 92.834 6.24403 92.834 7.14916C92.834 8.06194 93.637 8.80597 94.61 8.80597Z" fill="#062D0D"/>
<path d="M98.2285 26.5253H101.518V20.2202H101.618C102.074 21.202 103.07 22.2989 104.985 22.2989C107.687 22.2989 109.795 20.1741 109.795 16.2315C109.795 12.1815 107.594 10.1719 104.992 10.1719C103.008 10.1719 102.058 11.3455 101.618 12.3043H101.472V10.3253H98.2285V26.5253ZM101.448 16.2162C101.448 14.1145 102.344 12.7722 103.942 12.7722C105.572 12.7722 106.436 14.1759 106.436 16.2162C106.436 18.2719 105.556 19.6986 103.942 19.6986C102.359 19.6986 101.448 18.3179 101.448 16.2162Z" fill="#062D0D"/>
<path d="M121.203 13.685C120.91 11.5142 119.15 10.1719 116.154 10.1719C113.119 10.1719 111.119 11.5679 111.127 13.8384C111.119 15.6026 112.239 16.7455 114.556 17.2057L116.609 17.6122C117.644 17.8193 118.115 18.1952 118.13 18.7858C118.115 19.4838 117.35 19.9824 116.2 19.9824C115.026 19.9824 114.247 19.4838 114.046 18.525L110.811 18.6938C111.119 20.9489 113.05 22.3372 116.192 22.3372C119.265 22.3372 121.466 20.7801 121.474 18.456C121.466 16.7531 120.346 15.733 118.045 15.2651L115.899 14.8355C114.795 14.5977 114.385 14.2219 114.393 13.6543C114.385 12.9486 115.188 12.4884 116.208 12.4884C117.35 12.4884 118.03 13.1097 118.192 13.869L121.203 13.685Z" fill="#062D0D"/>
<path d="M130.498 17.0895C130.506 18.6697 129.417 19.4981 128.236 19.4981C126.993 19.4981 126.19 18.6313 126.182 17.243V10.3242H122.893V17.8259C122.9 20.5796 124.522 22.2594 126.908 22.2594C128.691 22.2594 129.973 21.3467 130.506 19.966H130.63V22.106H133.787V10.3242H130.498V17.0895Z" fill="#062D0D"/>
<path d="M135.766 22.1071H139.055V15.035C139.055 13.731 139.889 12.8642 140.985 12.8642C142.066 12.8642 142.792 13.6006 142.792 14.7588V22.1071H145.981V14.9122C145.981 13.6926 146.684 12.8642 147.881 12.8642C148.931 12.8642 149.718 13.5162 149.718 14.8278V22.1071H153V14.1835C153 11.6293 151.471 10.1719 149.263 10.1719C147.525 10.1719 146.174 11.054 145.688 12.404H145.564C145.186 11.0386 143.973 10.1719 142.344 10.1719C140.746 10.1719 139.534 11.0156 139.039 12.404H138.901V10.3253H135.766V22.1071Z" fill="#062D0D"/>
<path d="M18.0996 1H33.199L18.0996 16V1Z" fill="#E84ACE"/>
<path d="M18.0996 16H33.199L18.0996 31V16Z" fill="#E84ACE"/>
<path d="M42.8613 22.1056H52.984V19.3672H46.2046V6.39648H42.8613V22.1056Z" fill="#062D0D"/>
<path d="M59.843 22.3372C63.4412 22.3372 65.6804 19.8903 65.6804 16.2622C65.6804 12.6111 63.4412 10.1719 59.843 10.1719C56.2451 10.1719 54.0059 12.6111 54.0059 16.2622C54.0059 19.8903 56.2451 22.3372 59.843 22.3372ZM59.8584 19.806C58.1984 19.806 57.3492 18.2949 57.3492 16.2392C57.3492 14.1835 58.1984 12.6648 59.8584 12.6648C61.4876 12.6648 62.3371 14.1835 62.3371 16.2392C62.3371 18.2949 61.4876 19.806 59.8584 19.806Z" fill="#062D0D"/>
<path d="M72.5096 26.7708C75.8995 26.7708 78.3084 25.2366 78.3084 22.2222V10.3253H75.0424V12.3043H74.9189C74.4786 11.3455 73.5135 10.1719 71.5291 10.1719C68.9272 10.1719 66.7266 12.1815 66.7266 16.1932C66.7266 20.1128 68.8652 21.9384 71.5369 21.9384C73.4286 21.9384 74.4865 20.9949 74.9189 20.0208H75.0578V22.1761C75.0578 23.7946 74.0154 24.4236 72.587 24.4236C71.1353 24.4236 70.4018 23.7946 70.1315 23.0813L67.0896 23.4878C67.4833 25.344 69.3131 26.7708 72.5096 26.7708ZM72.5794 19.4838C70.9656 19.4838 70.0853 18.2105 70.0853 16.1778C70.0853 14.1759 70.9502 12.7722 72.5794 12.7722C74.1775 12.7722 75.0732 14.1145 75.0732 16.1778C75.0732 18.2565 74.1621 19.4838 72.5794 19.4838Z" fill="#062D0D"/>
<path d="M85.634 22.3372C89.2322 22.3372 91.4714 19.8903 91.4714 16.2622C91.4714 12.6111 89.2322 10.1719 85.634 10.1719C82.0358 10.1719 79.7969 12.6111 79.7969 16.2622C79.7969 19.8903 82.0358 22.3372 85.634 22.3372ZM85.6494 19.806C83.9894 19.806 83.1402 18.2949 83.1402 16.2392C83.1402 14.1835 83.9894 12.6648 85.6494 12.6648C87.2786 12.6648 88.1281 14.1835 88.1281 16.2392C88.1281 18.2949 87.2786 19.806 85.6494 19.806Z" fill="#062D0D"/>
<path d="M92.9575 22.1065H96.2468V10.3247H92.9575V22.1065ZM94.61 8.80597C95.5905 8.80597 96.3935 8.06194 96.3935 7.14916C96.3935 6.24403 95.5905 5.5 94.61 5.5C93.637 5.5 92.834 6.24403 92.834 7.14916C92.834 8.06194 93.637 8.80597 94.61 8.80597Z" fill="#062D0D"/>
<path d="M98.2285 26.5253H101.518V20.2202H101.618C102.074 21.202 103.07 22.2989 104.985 22.2989C107.687 22.2989 109.795 20.1741 109.795 16.2315C109.795 12.1815 107.594 10.1719 104.992 10.1719C103.008 10.1719 102.058 11.3455 101.618 12.3043H101.472V10.3253H98.2285V26.5253ZM101.448 16.2162C101.448 14.1145 102.344 12.7722 103.942 12.7722C105.572 12.7722 106.436 14.1759 106.436 16.2162C106.436 18.2719 105.556 19.6986 103.942 19.6986C102.359 19.6986 101.448 18.3179 101.448 16.2162Z" fill="#062D0D"/>
<path d="M121.203 13.685C120.91 11.5142 119.15 10.1719 116.154 10.1719C113.119 10.1719 111.119 11.5679 111.127 13.8384C111.119 15.6026 112.239 16.7455 114.556 17.2057L116.609 17.6122C117.644 17.8193 118.115 18.1952 118.13 18.7858C118.115 19.4838 117.35 19.9824 116.2 19.9824C115.026 19.9824 114.247 19.4838 114.046 18.525L110.811 18.6938C111.119 20.9489 113.05 22.3372 116.192 22.3372C119.265 22.3372 121.466 20.7801 121.474 18.456C121.466 16.7531 120.346 15.733 118.045 15.2651L115.899 14.8355C114.795 14.5977 114.385 14.2219 114.393 13.6543C114.385 12.9486 115.188 12.4884 116.208 12.4884C117.35 12.4884 118.03 13.1097 118.192 13.869L121.203 13.685Z" fill="#062D0D"/>
<path d="M130.498 17.0895C130.506 18.6697 129.417 19.4981 128.236 19.4981C126.993 19.4981 126.19 18.6313 126.182 17.243V10.3242H122.893V17.8259C122.9 20.5796 124.522 22.2594 126.908 22.2594C128.691 22.2594 129.973 21.3467 130.506 19.966H130.63V22.106H133.787V10.3242H130.498V17.0895Z" fill="#062D0D"/>
<path d="M135.766 22.1071H139.055V15.035C139.055 13.731 139.889 12.8642 140.985 12.8642C142.066 12.8642 142.792 13.6006 142.792 14.7588V22.1071H145.981V14.9122C145.981 13.6926 146.684 12.8642 147.881 12.8642C148.931 12.8642 149.718 13.5162 149.718 14.8278V22.1071H153V14.1835C153 11.6293 151.471 10.1719 149.263 10.1719C147.525 10.1719 146.174 11.054 145.688 12.404H145.564C145.186 11.0386 143.973 10.1719 142.344 10.1719C140.746 10.1719 139.534 11.0156 139.039 12.404H138.901V10.3253H135.766V22.1071Z" fill="#062D0D"/>
</mask>
<g mask="url(#mask1_1061_123)">
<rect opacity="0.4" x="-229" width="1280" height="32" fill="#0D0E10"/>
</g>
</g>
</svg>
