<svg width="136" height="32" viewBox="0 0 136 32" fill="none" xmlns="http://www.w3.org/2000/svg">
<mask id="mask0_1061_474" style="mask-type:alpha" maskUnits="userSpaceOnUse" x="0" y="0" width="136" height="32">
<rect width="136" height="32" fill="white"/>
</mask>
<g mask="url(#mask0_1061_474)">
<mask id="mask1_1061_474" style="mask-type:alpha" maskUnits="userSpaceOnUse" x="-913" y="0" width="1280" height="32">
<path d="M16.9482 0C14.8539 0 12.78 0.413897 10.845 1.21792C8.91011 2.02203 7.15208 3.20055 5.67108 4.68626C4.19018 6.17207 3.01548 7.93581 2.21398 9.87703C1.41256 11.8182 1 13.8989 1 16C1 18.1011 1.41256 20.1818 2.21398 22.123C3.01548 24.0642 4.19018 25.8279 5.67108 27.3137C7.15208 28.7994 8.91011 29.978 10.845 30.7821C12.78 31.5861 14.8539 32 16.9482 32V24C15.901 24 14.8641 23.7931 13.8966 23.391C12.9291 22.989 12.0501 22.3997 11.3096 21.6569C10.5692 20.914 9.98183 20.0321 9.58112 19.0615C9.18032 18.0909 8.97409 17.0506 8.97409 16C8.97409 14.9494 9.18032 13.9091 9.58112 12.9385C9.98183 11.9679 10.5692 11.086 11.3096 10.3431C12.0501 9.60027 12.9291 9.01101 13.8966 8.609C14.8641 8.2069 15.901 8 16.9482 8V0Z" fill="#0F52FF"/>
<path d="M16.9488 21.3326C19.8849 21.3326 22.2649 18.9449 22.2649 15.9993C22.2649 13.0538 19.8849 10.666 16.9488 10.666C14.0128 10.666 11.6328 13.0538 11.6328 15.9993C11.6328 18.9449 14.0128 21.3326 16.9488 21.3326Z" fill="#0F52FF"/>
<path d="M1 16C1 18.1011 1.41256 20.1818 2.21398 22.123C3.01548 24.0642 4.19018 25.8279 5.67108 27.3137C7.15208 28.7994 8.91011 29.978 10.845 30.7821C12.78 31.5861 14.8539 32 16.9482 32C19.0425 32 21.1164 31.5861 23.0513 30.7821C24.9862 29.978 26.7443 28.7994 28.2253 27.3137C29.7062 25.8279 30.8809 24.0642 31.6824 22.123C32.4838 20.1818 32.8964 18.1011 32.8964 16H24.9223C24.9223 17.0506 24.716 18.0909 24.3152 19.0615C23.9145 20.0321 23.3272 20.914 22.5867 21.6569C21.8463 22.3997 20.9672 22.989 19.9997 23.391C19.0323 23.7931 17.9954 24 16.9482 24C15.901 24 14.8641 23.7931 13.8966 23.391C12.9291 22.989 12.0501 22.3997 11.3096 21.6569C10.5692 20.914 9.98183 20.0321 9.58112 19.0615C9.18032 18.0909 8.97409 17.0506 8.97409 16H1Z" fill="#5BD0F4"/>
<path d="M22.265 15.9994C22.265 14.5849 21.7049 13.2284 20.708 12.2282C19.711 11.2279 18.3588 10.666 16.9489 10.666C15.539 10.666 14.1869 11.2279 13.1899 12.2282C12.1929 13.2284 11.6328 14.5849 11.6328 15.9994H16.9489H22.265Z" fill="#5BD0F4"/>
<path d="M46.1446 7.5957H43.6875V21.2905H46.1446V7.5957Z" fill="#0F52FF"/>
<path d="M47.75 16.4383C47.75 19.6076 49.9341 21.564 52.8202 21.564C55.7063 21.564 57.8903 19.6076 57.8903 16.4383C57.8903 13.2689 55.7063 11.3125 52.8202 11.3125C49.9341 11.3125 47.75 13.2689 47.75 16.4383ZM50.2071 16.4383C50.2071 14.5601 51.2991 13.4645 52.8202 13.4645C54.3412 13.4645 55.4333 14.5601 55.4333 16.4383C55.4333 18.3164 54.3412 19.412 52.8202 19.412C51.2991 19.412 50.2071 18.3164 50.2071 16.4383Z" fill="#0F52FF"/>
<path d="M66.6695 11.5864V12.8971H66.4745C65.8894 12.0559 64.9534 11.3125 63.2763 11.3125C60.9753 11.3125 58.9082 13.2689 58.9082 16.2818C58.9082 19.2946 60.9753 21.251 63.2763 21.251C64.9534 21.251 65.8894 20.488 66.4355 19.725H66.6305V20.6641C66.6305 22.5422 65.5384 23.4031 63.9394 23.4031C62.3403 23.4031 61.5213 22.5422 61.1897 21.427L58.9862 22.3857C59.4932 23.853 60.9753 25.4768 63.9784 25.4768C67.0595 25.4768 69.0875 23.853 69.0875 20.7227V11.5864H66.6695ZM64.0174 19.1381C62.4963 19.1381 61.3653 18.0425 61.3653 16.2818C61.3653 14.521 62.4963 13.4254 64.0174 13.4254C65.5384 13.4254 66.6695 14.521 66.6695 16.2818C66.6695 18.0425 65.5384 19.1381 64.0174 19.1381Z" fill="#0F52FF"/>
<path d="M70.6777 16.4383C70.6777 19.6076 72.8618 21.564 75.7479 21.564C78.634 21.564 80.818 19.6076 80.818 16.4383C80.818 13.2689 78.634 11.3125 75.7479 11.3125C72.8618 11.3125 70.6777 13.2689 70.6777 16.4383ZM73.1348 16.4383C73.1348 14.5601 74.2269 13.4645 75.7479 13.4645C77.269 13.4645 78.361 14.5601 78.361 16.4383C78.361 18.3164 77.269 19.412 75.7479 19.412C74.2269 19.412 73.1348 18.3164 73.1348 16.4383Z" fill="#0F52FF"/>
<path d="M82.7461 8.76844C82.7461 9.76626 83.5069 10.4509 84.4825 10.4509C85.457 10.4509 86.2178 9.76626 86.2178 8.76844C86.2178 7.77074 85.457 7.08594 84.4825 7.08594C83.5069 7.08594 82.7461 7.77074 82.7461 8.76844ZM85.7102 11.5857H83.2537V21.2894H85.7102V11.5857Z" fill="#5BD0F4"/>
<path d="M87.9004 25.203H90.358V20.0381H90.5525C91.0985 20.8206 92.0345 21.564 93.7122 21.564C96.0127 21.564 98.0803 19.6076 98.0803 16.4383C98.0803 13.2689 96.0127 11.3125 93.7122 11.3125C92.0345 11.3125 91.0985 12.0559 90.514 12.8972H90.3185V11.5864H87.9004V25.203ZM92.9706 19.4511C91.4501 19.4511 90.3185 18.3555 90.3185 16.4383C90.3185 14.521 91.4501 13.4254 92.9706 13.4254C94.4922 13.4254 95.6226 14.521 95.6226 16.4383C95.6226 18.3555 94.4922 19.4511 92.9706 19.4511Z" fill="#5BD0F4"/>
<path d="M99.5137 14.3059C99.5137 16.2231 101.112 16.9274 103.14 17.3187L103.648 17.4165C104.856 17.6512 105.402 17.9448 105.402 18.5708C105.402 19.1969 104.856 19.6859 103.726 19.6859C102.594 19.6859 101.679 19.2164 101.424 17.8078L99.1621 18.3947C99.4945 20.4293 101.19 21.564 103.726 21.564C106.182 21.564 107.782 20.4098 107.782 18.3752C107.782 16.3404 106.144 15.7927 103.96 15.3623L103.452 15.2644C102.438 15.0688 101.892 14.7949 101.892 14.1493C101.892 13.5624 102.4 13.1906 103.336 13.1906C104.272 13.1906 104.934 13.5819 105.168 14.6384L107.392 13.9537C106.924 12.3886 105.501 11.3125 103.336 11.3125C101.034 11.3125 99.5137 12.3886 99.5137 14.3059Z" fill="#5BD0F4"/>
<path d="M118.819 21.2897V11.5859H116.363V16.5943C116.363 18.3942 115.486 19.4507 113.983 19.4507C112.657 19.4507 111.917 18.7269 111.917 17.2595V11.5859H109.459V17.3769C109.459 19.7833 110.961 21.4462 113.223 21.4462C114.997 21.4462 115.817 20.6636 116.207 19.8419H116.401V21.2897H118.819Z" fill="#5BD0F4"/>
<path d="M120.998 11.5862V21.29H123.456V15.499C123.456 14.1686 124.08 13.4252 125.21 13.4252C126.186 13.4252 126.77 13.973 126.77 15.0295V21.29H129.228V15.499C129.228 14.1686 129.852 13.4252 130.982 13.4252C131.958 13.4252 132.542 13.973 132.542 15.0295V21.29H135V14.9121C135 12.5644 133.556 11.4297 131.762 11.4297C130.183 11.4297 129.462 12.134 128.994 12.9557H128.798C128.35 12.0362 127.55 11.4297 126.146 11.4297C124.742 11.4297 123.981 12.0557 123.612 12.7992H123.416V11.5862H120.998Z" fill="#5BD0F4"/>
</mask>
<g mask="url(#mask1_1061_474)">
<rect opacity="0.4" x="-913" width="1280" height="32" fill="#0D0E10"/>
</g>
</g>
</svg>
