<svg width="154" height="32" viewBox="0 0 154 32" fill="none" xmlns="http://www.w3.org/2000/svg">
<mask id="mask0_1061_122" style="mask-type:alpha" maskUnits="userSpaceOnUse" x="0" y="0" width="154" height="32">
<rect width="154" height="32" fill="white"/>
</mask>
<g mask="url(#mask0_1061_122)">
<mask id="mask1_1061_122" style="mask-type:alpha" maskUnits="userSpaceOnUse" x="1" y="0" width="1280" height="32">
<path d="M44.2634 21.6914C44.2634 22.4336 44.1105 23.0039 43.8047 23.4023C43.5068 23.8008 43.0089 24 42.3111 24C41.6525 24 41.186 23.8008 40.9115 23.4023C40.645 23.0039 40.5117 22.4336 40.5117 21.6914V9.3047C40.5117 8.5625 40.645 7.99219 40.9115 7.59375C41.186 7.19531 41.6525 6.99609 42.3111 6.99609C43.0089 6.99609 43.5068 7.19531 43.8047 7.59375C44.1105 7.99219 44.2634 8.5625 44.2634 9.3047V21.6914Z" fill="#09355D"/>
<path d="M45.4023 18.0938C45.4023 17.2656 45.5356 16.4844 45.8023 15.75C46.0766 15.0078 46.4843 14.3594 47.0253 13.8047C47.5742 13.25 48.2563 12.8086 49.0717 12.4805C49.895 12.1523 50.8593 11.9883 51.9648 11.9883C53.0233 11.9883 53.9603 12.1406 54.7757 12.4453C55.5911 12.75 56.2771 13.1758 56.8337 13.7227C57.3904 14.2617 57.8138 14.9062 58.1039 15.6562C58.394 16.3984 58.5391 17.2109 58.5391 18.0938C58.5391 18.9141 58.4018 19.6914 58.1274 20.4258C57.853 21.1523 57.4414 21.793 56.8925 22.3477C56.3438 22.8945 55.6577 23.332 54.8345 23.6602C54.0111 23.9805 53.0546 24.1406 51.9648 24.1406C50.8907 24.1406 49.942 23.9883 49.1187 23.6836C48.3033 23.3711 47.6173 22.9453 47.0607 22.4062C46.5118 21.8594 46.0962 21.2188 45.814 20.4844C45.5395 19.7422 45.4023 18.9453 45.4023 18.0938ZM49.3187 18.0938C49.3187 18.6094 49.3657 19.1016 49.4598 19.5703C49.5538 20.0312 49.7029 20.4375 49.9067 20.7891C50.1184 21.1406 50.3928 21.4219 50.7299 21.6328C51.0671 21.8359 51.4787 21.9375 51.9648 21.9375C52.4117 21.9375 52.7998 21.8438 53.1291 21.6562C53.4663 21.4688 53.7407 21.207 53.9524 20.8711C54.1719 20.5352 54.3366 20.1328 54.4463 19.6641C54.5561 19.1875 54.611 18.6641 54.611 18.0938C54.611 17.5781 54.56 17.0898 54.4581 16.6289C54.364 16.1602 54.2112 15.75 53.9994 15.3984C53.7878 15.0391 53.5134 14.7578 53.1762 14.5547C52.8469 14.3438 52.4431 14.2383 51.9648 14.2383C51.4865 14.2383 51.0789 14.3398 50.7417 14.543C50.4046 14.7461 50.1302 15.0234 49.9185 15.375C49.7068 15.7266 49.5538 16.1367 49.4598 16.6055C49.3657 17.0742 49.3187 17.5703 49.3187 18.0938Z" fill="#09355D"/>
<path d="M68.1925 21.7383C67.9808 22.1289 67.722 22.4609 67.4162 22.7344C67.1184 23.0078 66.7851 23.2344 66.4167 23.4141C66.056 23.5859 65.6679 23.7148 65.2523 23.8008C64.8446 23.8789 64.4252 23.918 63.9939 23.918C63.2726 23.918 62.614 23.7891 62.0181 23.5312C61.4223 23.2734 60.9087 22.9023 60.4775 22.418C60.0541 21.9258 59.7248 21.3242 59.4896 20.6133C59.2543 19.9023 59.1367 19.0898 59.1367 18.1758C59.1367 17.3164 59.2465 16.5117 59.4661 15.7617C59.6856 15.0117 60.0031 14.3594 60.4187 13.8047C60.8421 13.25 61.3595 12.8125 61.9711 12.4922C62.5826 12.1719 63.2805 12.0117 64.0645 12.0117C64.9583 12.0117 65.7502 12.1836 66.4402 12.5273C67.1379 12.8711 67.7378 13.4336 68.2396 14.2148V13.9102C68.2396 13.3477 68.3924 12.9258 68.6982 12.6445C69.0118 12.3555 69.4431 12.2109 69.9919 12.2109C70.3212 12.2109 70.5995 12.2656 70.8269 12.375C71.0542 12.4766 71.2346 12.6328 71.3678 12.8438C71.5012 13.0469 71.5952 13.3008 71.6501 13.6055C71.7129 13.9023 71.7442 14.2422 71.7442 14.625V22.4766C71.7442 23.4297 71.6227 24.2812 71.3797 25.0312C71.1444 25.7812 70.7759 26.4141 70.2741 26.9297C69.7723 27.4453 69.1294 27.8359 68.3454 28.1016C67.5614 28.375 66.6283 28.5117 65.5464 28.5117C64.7859 28.5117 64.1116 28.4766 63.5235 28.4062C62.9433 28.3438 62.4415 28.2461 62.0181 28.1133C61.5948 27.9648 61.2733 27.8008 61.0538 27.6211C60.8421 27.4414 60.7362 27.207 60.7362 26.918C60.7362 26.7539 60.7597 26.5977 60.8068 26.4492C60.8538 26.3008 60.9244 26.168 61.0184 26.0508C61.1204 25.9414 61.2498 25.8516 61.4066 25.7812C61.5712 25.7188 61.7711 25.6875 62.0064 25.6875C62.2572 25.6875 62.5081 25.7031 62.759 25.7344C63.0178 25.7656 63.2844 25.7969 63.5588 25.8281C63.841 25.8672 64.135 25.9023 64.4408 25.9336C64.7544 25.9648 65.0916 25.9805 65.4522 25.9805C65.8835 25.9805 66.2676 25.9375 66.6048 25.8516C66.942 25.7656 67.2281 25.6133 67.4633 25.3945C67.6985 25.1758 67.8789 24.8828 68.0043 24.5156C68.1298 24.1562 68.1925 23.6953 68.1925 23.1328V21.7383ZM68.1925 18.0938C68.1925 17.5234 68.1494 17.0039 68.0632 16.5352C67.9848 16.0664 67.8475 15.668 67.6515 15.3398C67.4555 15.0039 67.1928 14.7461 66.8636 14.5664C66.5342 14.3789 66.1226 14.2852 65.6287 14.2852C65.1425 14.2852 64.7388 14.3828 64.4173 14.5781C64.1037 14.7734 63.8528 15.043 63.6647 15.3867C63.4765 15.7305 63.3432 16.1328 63.2647 16.5938C63.1942 17.0547 63.159 17.5469 63.159 18.0703C63.159 19.2656 63.3706 20.1641 63.794 20.7656C64.2173 21.3672 64.8328 21.668 65.6404 21.668C66.0168 21.6602 66.3579 21.5898 66.6636 21.457C66.9772 21.3164 67.2477 21.1016 67.4751 20.8125C67.7025 20.5234 67.8789 20.1562 68.0043 19.7109C68.1298 19.2656 68.1925 18.7266 68.1925 18.0938Z" fill="#09355D"/>
<path d="M72.8242 18.0938C72.8242 17.2656 72.9575 16.4844 73.224 15.75C73.4985 15.0078 73.9062 14.3594 74.4472 13.8047C74.9961 13.25 75.6781 12.8086 76.4935 12.4805C77.3168 12.1523 78.2812 11.9883 79.3867 11.9883C80.4451 11.9883 81.382 12.1406 82.1974 12.4453C83.0129 12.75 83.6989 13.1758 84.2556 13.7227C84.8123 14.2617 85.2357 14.9062 85.5257 15.6562C85.8158 16.3984 85.9609 17.2109 85.9609 18.0938C85.9609 18.9141 85.8237 19.6914 85.5493 20.4258C85.2748 21.1523 84.8632 21.793 84.3144 22.3477C83.7655 22.8945 83.0795 23.332 82.2563 23.6602C81.433 23.9805 80.4765 24.1406 79.3867 24.1406C78.3125 24.1406 77.3638 23.9883 76.5406 23.6836C75.7252 23.3711 75.0391 22.9453 74.4824 22.4062C73.9337 21.8594 73.5181 21.2188 73.2358 20.4844C72.9614 19.7422 72.8242 18.9453 72.8242 18.0938ZM76.7405 18.0938C76.7405 18.6094 76.7876 19.1016 76.8817 19.5703C76.9757 20.0312 77.1247 20.4375 77.3286 20.7891C77.5402 21.1406 77.8146 21.4219 78.1518 21.6328C78.4889 21.8359 78.9006 21.9375 79.3867 21.9375C79.8336 21.9375 80.2217 21.8438 80.551 21.6562C80.8881 21.4688 81.1625 21.207 81.3742 20.8711C81.5938 20.5352 81.7584 20.1328 81.8682 19.6641C81.978 19.1875 82.0329 18.6641 82.0329 18.0938C82.0329 17.5781 81.9819 17.0898 81.8799 16.6289C81.7859 16.1602 81.6329 15.75 81.4213 15.3984C81.2096 15.0391 80.9351 14.7578 80.598 14.5547C80.2688 14.3438 79.8649 14.2383 79.3867 14.2383C78.9084 14.2383 78.5007 14.3398 78.1636 14.543C77.8265 14.7461 77.552 15.0234 77.3403 15.375C77.1287 15.7266 76.9757 16.1367 76.8817 16.6055C76.7876 17.0742 76.7405 17.5703 76.7405 18.0938Z" fill="#09355D"/>
<path d="M91.0048 8.03906C91.0048 8.29688 90.946 8.52734 90.8284 8.73047C90.7108 8.92578 90.5579 9.0898 90.3697 9.2227C90.1816 9.3555 89.962 9.457 89.7111 9.5273C89.4681 9.5898 89.2172 9.6211 88.9584 9.6211C88.684 9.6211 88.4214 9.5859 88.1705 9.5156C87.9274 9.4453 87.7119 9.3438 87.5237 9.2109C87.3355 9.0703 87.1865 8.90234 87.0767 8.70703C86.967 8.51172 86.9121 8.28906 86.9121 8.03906C86.9121 7.8125 86.9631 7.60547 87.065 7.41797C87.1748 7.22266 87.3198 7.05469 87.5001 6.91406C87.6805 6.77344 87.8961 6.66406 88.147 6.58594C88.3979 6.50781 88.6723 6.46875 88.9703 6.46875C89.229 6.46875 89.4799 6.50391 89.7229 6.57422C89.9738 6.64453 90.1933 6.74609 90.3815 6.87891C90.5696 7.01172 90.7187 7.17578 90.8284 7.37109C90.946 7.56641 91.0048 7.78906 91.0048 8.03906ZM90.8284 21.6914C90.8284 22.4336 90.6755 23.0039 90.3697 23.4023C90.0718 23.8008 89.5739 24 88.8761 24C88.2176 24 87.751 23.8008 87.4766 23.4023C87.2101 23.0039 87.0767 22.4336 87.0767 21.6914V14.5195C87.0767 13.7773 87.2101 13.207 87.4766 12.8086C87.751 12.4102 88.2176 12.2109 88.8761 12.2109C89.5739 12.2109 90.0718 12.4102 90.3697 12.8086C90.6755 13.207 90.8284 13.7773 90.8284 14.5195V21.6914Z" fill="#09355D"/>
<path d="M96.2361 18.0703C96.2361 18.5938 96.2752 19.082 96.3537 19.5352C96.4399 19.9883 96.581 20.3867 96.777 20.7305C96.9809 21.0664 97.2475 21.332 97.5768 21.5273C97.9139 21.7227 98.3294 21.8203 98.8234 21.8203C99.2781 21.8203 99.6584 21.7266 99.9645 21.5391C100.278 21.3438 100.528 21.0781 100.717 20.7422C100.905 20.3984 101.038 19.9961 101.117 19.5352C101.203 19.0742 101.246 18.5742 101.246 18.0352C101.246 17.6055 101.215 17.168 101.152 16.7227C101.089 16.2695 100.972 15.8594 100.799 15.4922C100.627 15.125 100.388 14.8242 100.082 14.5898C99.7758 14.3555 99.3764 14.2383 98.8822 14.2383C98.3883 14.2383 97.9688 14.3164 97.6238 14.4727C97.2866 14.6289 97.0122 14.8672 96.8006 15.1875C96.5967 15.5078 96.4517 15.9102 96.3654 16.3945C96.2791 16.8711 96.2361 17.4297 96.2361 18.0703ZM96.2243 14.5195C96.4203 14.1055 96.6712 13.7422 96.977 13.4297C97.2827 13.1172 97.6199 12.8555 97.9884 12.6445C98.3569 12.4336 98.7411 12.2773 99.1409 12.1758C99.549 12.0664 99.9524 12.0117 100.352 12.0117C101.073 12.0117 101.725 12.1719 102.305 12.4922C102.885 12.8125 103.379 13.25 103.786 13.8047C104.202 14.3516 104.52 15 104.74 15.75C104.958 16.4922 105.069 17.2891 105.069 18.1406C105.069 19.0234 104.95 19.832 104.715 20.5664C104.489 21.3008 104.162 21.9336 103.739 22.4648C103.323 22.9883 102.822 23.3984 102.234 23.6953C101.654 23.9922 101.007 24.1406 100.294 24.1406C99.4155 24.1406 98.6313 23.9375 97.9414 23.5312C97.2514 23.125 96.6791 22.5547 96.2243 21.8203V26.0391C96.2243 26.7812 96.0714 27.3516 95.7656 27.75C95.4676 28.1484 94.9699 28.3477 94.272 28.3477C93.6134 28.3477 93.1469 28.1484 92.8725 27.75C92.6059 27.3516 92.4727 26.7812 92.4727 26.0391V14.5195C92.4727 13.7773 92.6059 13.207 92.8725 12.8086C93.1469 12.4102 93.6134 12.2109 94.272 12.2109C94.9699 12.2109 95.4676 12.4102 95.7656 12.8086C96.0714 13.207 96.2243 13.7773 96.2243 14.5195Z" fill="#09355D"/>
<path d="M109.207 15.3516C109.207 15.6562 109.341 15.8945 109.607 16.0664C109.874 16.2305 110.242 16.3672 110.713 16.4766C111.159 16.5781 111.618 16.6758 112.089 16.7695C112.559 16.8633 113.018 16.9727 113.465 17.0977C113.911 17.2148 114.331 17.3555 114.723 17.5195C115.115 17.6836 115.46 17.8906 115.758 18.1406C116.056 18.3828 116.291 18.6797 116.463 19.0312C116.636 19.375 116.722 19.7891 116.722 20.2734C116.722 20.8828 116.597 21.4258 116.346 21.9023C116.095 22.3711 115.739 22.7695 115.276 23.0977C114.821 23.4258 114.277 23.6797 113.641 23.8594C113.006 24.0391 112.304 24.1328 111.536 24.1406C110.807 24.1406 110.105 24.0938 109.43 24C108.757 23.9141 108.157 23.7773 107.631 23.5898C107.114 23.4023 106.699 23.1719 106.384 22.8984C106.071 22.6172 105.915 22.2891 105.915 21.9141C105.915 21.5859 106.02 21.332 106.232 21.1523C106.444 20.9727 106.714 20.8828 107.044 20.8828C107.169 20.8828 107.318 20.9062 107.49 20.9531C107.663 21 107.851 21.0586 108.054 21.1289C108.258 21.1992 108.474 21.2773 108.702 21.3633C108.936 21.4414 109.179 21.5117 109.43 21.5742C109.744 21.6602 110.066 21.7305 110.395 21.7852C110.732 21.832 111.077 21.8555 111.43 21.8555C111.649 21.8555 111.865 21.8359 112.077 21.7969C112.288 21.75 112.477 21.6836 112.642 21.5977C112.814 21.5039 112.955 21.3867 113.065 21.2461C113.175 21.1055 113.241 20.9336 113.265 20.7305C113.288 20.6836 113.308 20.6367 113.323 20.5898C113.339 20.543 113.347 20.4883 113.347 20.4258C113.347 20.207 113.245 20.0117 113.041 19.8398C112.845 19.668 112.566 19.5312 112.206 19.4297C111.602 19.2891 111.026 19.1602 110.477 19.043C109.929 18.9258 109.419 18.8008 108.949 18.668C108.486 18.5352 108.062 18.3828 107.678 18.2109C107.302 18.0391 106.981 17.8281 106.714 17.5781C106.456 17.3281 106.251 17.0273 106.102 16.6758C105.961 16.3242 105.891 15.8984 105.891 15.3984C105.891 14.8594 106.012 14.3789 106.255 13.957C106.506 13.5273 106.863 13.168 107.326 12.8789C107.788 12.5898 108.348 12.3711 109.008 12.2227C109.666 12.0664 110.411 11.9883 111.242 11.9883C112.731 11.9883 113.864 12.168 114.641 12.5273C115.425 12.8789 115.817 13.3398 115.817 13.9102C115.817 14.2305 115.711 14.4766 115.499 14.6484C115.287 14.8125 115.032 14.8945 114.735 14.8945C114.578 14.8945 114.413 14.8672 114.24 14.8125C114.076 14.75 113.876 14.6836 113.641 14.6133C113.405 14.5352 113.123 14.4688 112.794 14.4141C112.473 14.3516 112.073 14.3203 111.595 14.3203C111.234 14.3203 110.904 14.3359 110.606 14.3672C110.316 14.3984 110.066 14.4531 109.854 14.5312C109.65 14.6094 109.489 14.7148 109.372 14.8477C109.262 14.9805 109.207 15.1484 109.207 15.3516Z" fill="#09355D"/>
<path d="M121.496 19.6523C121.496 20.0195 121.543 20.3398 121.637 20.6133C121.738 20.8867 121.876 21.1172 122.048 21.3047C122.221 21.4844 122.421 21.6211 122.648 21.7148C122.883 21.8008 123.134 21.8438 123.4 21.8438C123.714 21.8438 124.017 21.7969 124.307 21.7031C124.597 21.6094 124.851 21.4648 125.071 21.2695C125.298 21.0742 125.479 20.8281 125.612 20.5312C125.745 20.2344 125.812 19.8867 125.812 19.4883V14.5195C125.812 13.7773 125.945 13.207 126.211 12.8086C126.486 12.4102 126.953 12.2109 127.611 12.2109C128.309 12.2109 128.807 12.4102 129.105 12.8086C129.411 13.207 129.563 13.7773 129.563 14.5195V21.6914C129.563 22.4336 129.411 23.0039 129.105 23.4023C128.807 23.8008 128.309 24 127.611 24C126.953 24 126.486 23.8008 126.211 23.4023C125.945 23.0039 125.812 22.4336 125.812 21.6914C125.647 22.0508 125.432 22.3789 125.165 22.6758C124.906 22.9727 124.601 23.2305 124.247 23.4492C123.902 23.6602 123.519 23.8242 123.095 23.9414C122.68 24.0586 122.228 24.1172 121.742 24.1172C121.218 24.1172 120.712 24.0273 120.225 23.8477C119.747 23.6602 119.324 23.3867 118.955 23.0273C118.587 22.6602 118.293 22.207 118.073 21.668C117.854 21.1289 117.744 20.5 117.744 19.7812V14.5195C117.744 13.7773 117.878 13.207 118.144 12.8086C118.419 12.4102 118.884 12.2109 119.544 12.2109C120.241 12.2109 120.739 12.4102 121.037 12.8086C121.343 13.207 121.496 13.7773 121.496 14.5195V19.6523Z" fill="#09355D"/>
<path d="M131.266 14.5195C131.266 13.7773 131.399 13.207 131.666 12.8086C131.94 12.4102 132.407 12.2109 133.065 12.2109C133.764 12.2109 134.261 12.4102 134.559 12.8086C134.864 13.207 135.018 13.7773 135.018 14.5195C135.175 14.1445 135.386 13.8047 135.653 13.5C135.927 13.1875 136.237 12.9219 136.582 12.7031C136.935 12.4844 137.315 12.3164 137.723 12.1992C138.13 12.0742 138.554 12.0117 138.993 12.0117C139.401 12.0117 139.8 12.0664 140.192 12.1758C140.592 12.2773 140.961 12.4453 141.298 12.6797C141.643 12.9062 141.945 13.1953 142.204 13.5469C142.463 13.8984 142.662 14.3203 142.804 14.8125C143.047 14.2891 143.333 13.8477 143.662 13.4883C143.991 13.1289 144.348 12.8398 144.732 12.6211C145.116 12.4023 145.516 12.2461 145.932 12.1523C146.355 12.0586 146.778 12.0117 147.201 12.0117C147.703 12.0117 148.182 12.1016 148.637 12.2812C149.099 12.4609 149.503 12.7344 149.848 13.1016C150.201 13.4609 150.479 13.918 150.683 14.4727C150.895 15.0195 151 15.6602 151 16.3945V21.6914C151 22.4336 150.847 23.0039 150.541 23.4023C150.244 23.8008 149.746 24 149.048 24C148.39 24 147.923 23.8008 147.649 23.4023C147.382 23.0039 147.249 22.4336 147.249 21.6914V16.5586C147.249 16.207 147.201 15.8945 147.108 15.6211C147.014 15.3398 146.88 15.1055 146.708 14.918C146.543 14.7227 146.347 14.5781 146.12 14.4844C145.893 14.3828 145.649 14.332 145.391 14.332C145.069 14.332 144.764 14.3828 144.474 14.4844C144.184 14.5859 143.929 14.7422 143.709 14.9531C143.497 15.1641 143.325 15.4336 143.191 15.7617C143.066 16.0898 143.003 16.4844 143.003 16.9453V21.6914C143.003 22.4336 142.85 23.0039 142.545 23.4023C142.247 23.8008 141.749 24 141.051 24C140.392 24 139.926 23.8008 139.652 23.4023C139.385 23.0039 139.251 22.4336 139.251 21.6914V16.7812C139.251 15.9766 139.083 15.3672 138.746 14.9531C138.416 14.5391 137.966 14.332 137.393 14.332C137.056 14.332 136.742 14.3867 136.452 14.4961C136.162 14.6055 135.911 14.7656 135.699 14.9766C135.488 15.1875 135.319 15.4492 135.194 15.7617C135.076 16.0742 135.018 16.4336 135.018 16.8398V21.6914C135.018 22.4336 134.864 23.0039 134.559 23.4023C134.261 23.8008 133.764 24 133.065 24C132.407 24 131.94 23.8008 131.666 23.4023C131.399 23.0039 131.266 22.4336 131.266 21.6914V14.5195Z" fill="#09355D"/>
<path d="M16.0527 22C12.7272 22 10.0312 19.3137 10.0312 16C10.0312 12.6863 12.7272 10 16.0527 10C19.3783 10 22.0742 12.6863 22.0742 16C22.0742 19.3137 19.3783 22 16.0527 22Z" fill="#51A3EE"/>
<path d="M4.38775 18.0487C2.64278 18.3553 1.44669 20.0349 2.11653 21.6695C3.0517 23.9516 4.54366 25.9848 6.47786 27.5736C9.24364 29.8453 12.7321 31.0592 16.3159 30.9969C19.8996 30.9346 23.3435 29.6001 26.0281 27.2335C27.9054 25.5785 29.3253 23.4945 30.18 21.1814C30.7922 19.5245 29.5379 17.8875 27.7833 17.6418C26.0287 17.3961 24.4533 18.6687 23.5866 20.2087C23.1168 21.0434 22.5069 21.8007 21.7763 22.4448C20.236 23.8027 18.2601 24.5683 16.204 24.6041C14.1477 24.6398 12.1462 23.9434 10.5593 22.6399C9.80655 22.0216 9.17058 21.286 8.67182 20.4681C7.75175 18.9592 6.13272 17.7421 4.38775 18.0487Z" fill="#51A3EE"/>
<path d="M30.991 17.8745C31.0678 17.2604 31.1074 16.6348 31.1074 16C31.1074 7.71573 24.3676 1 16.0537 1C7.73977 1 1 7.71573 1 16C1 16.8147 1.06518 17.6142 1.19064 18.3937C1.88209 17.4505 2.96125 16.7772 4.12691 16.5724C5.3881 16.3508 6.53432 16.6556 7.50347 17.2253C7.44621 16.8251 7.41658 16.416 7.41658 16C7.41658 11.2469 11.2836 7.3937 16.0537 7.3937C20.8238 7.3937 24.6908 11.2469 24.6908 16C24.6908 16.3134 24.6739 16.6229 24.6412 16.9276C25.5899 16.3243 26.725 15.9796 27.9934 16.1573C29.1652 16.3214 30.2669 16.9564 30.991 17.8745Z" fill="#0E4F8B"/>
</mask>
<g mask="url(#mask1_1061_122)">
<rect opacity="0.4" x="1" width="1280" height="32" fill="#0D0E10"/>
</g>
</g>
</svg>
