<svg width="135" height="32" viewBox="0 0 135 32" fill="none" xmlns="http://www.w3.org/2000/svg">
<mask id="mask0_1061_240" style="mask-type:alpha" maskUnits="userSpaceOnUse" x="0" y="0" width="135" height="32">
<rect width="135" height="32" fill="white"/>
</mask>
<g mask="url(#mask0_1061_240)">
<mask id="mask1_1061_240" style="mask-type:alpha" maskUnits="userSpaceOnUse" x="-462" y="0" width="1280" height="32">
<path d="M2 24L2 8L10.073 12.4445V19.6L16.5315 23.2L22.9899 19.6V12.4445L31.063 8V24L16.5315 32L2 24Z" fill="#192657"/>
<path fill-rule="evenodd" clip-rule="evenodd" d="M6.03653 10.2223L2 8.00001L16.5315 0L31.063 8.00001L27.0265 10.2223V22L16.5315 28.0001L6.03652 22L6.03653 10.2223ZM26.5892 10.463L22.9899 12.4445V12.4L16.5315 8.79999L10.073 12.4V12.4445L6.47381 10.463V21.7539L16.5315 27.5039L26.5892 21.7539V10.463Z" fill="url(#paint0_linear_1061_240)"/>
<path d="M38.8008 22.7349V9.29492H41.3583V20.4309H47.5585V22.7349H38.8008Z" fill="#192657"/>
<path d="M53.0786 23.0042C52.1228 23.0042 51.2638 22.8122 50.5017 22.4281C49.7396 22.0441 49.139 21.4873 48.6998 20.7578C48.2606 20.0282 48.041 19.1514 48.041 18.1274V17.8201C48.041 16.7961 48.2606 15.9193 48.6998 15.1897C49.139 14.4602 49.7396 13.9034 50.5017 13.5194C51.2638 13.1353 52.1228 12.9434 53.0786 12.9434C54.0345 12.9434 54.8934 13.1353 55.6555 13.5194C56.4176 13.9034 57.0183 14.4602 57.4574 15.1897C57.8966 15.9193 58.1162 16.7961 58.1162 17.8201V18.1274C58.1162 19.1514 57.8966 20.0282 57.4574 20.7578C57.0183 21.4873 56.4176 22.0441 55.6555 22.4281C54.8934 22.8122 54.0345 23.0042 53.0786 23.0042ZM53.0786 20.8537C53.8278 20.8537 54.4478 20.617 54.9386 20.1433C55.4295 19.657 55.6749 18.9657 55.6749 18.0697V17.8778C55.6749 16.9818 55.4295 16.2969 54.9386 15.8233C54.4607 15.337 53.8407 15.0938 53.0786 15.0938C52.3295 15.0938 51.7094 15.337 51.2186 15.8233C50.7277 16.2969 50.4824 16.9818 50.4824 17.8778V18.0697C50.4824 18.9657 50.7277 19.657 51.2186 20.1433C51.7094 20.617 52.3295 20.8537 53.0786 20.8537Z" fill="#192657"/>
<path d="M59.0332 18.0122V17.705C59.0332 16.7066 59.2334 15.8554 59.6338 15.1513C60.0342 14.4345 60.5639 13.8905 61.2226 13.5194C61.8943 13.1353 62.6241 12.9434 63.412 12.9434C64.2903 12.9434 64.9556 13.097 65.4076 13.4042C65.8598 13.7113 66.1892 14.0314 66.3958 14.3642H66.7446V13.2121H69.1471V24.425C69.1471 25.0778 68.9533 25.5961 68.5658 25.9802C68.1783 26.377 67.6616 26.5754 67.0158 26.5754H60.5832V24.4634H66.1633C66.5249 24.4634 66.7058 24.2714 66.7058 23.8874V21.4105H66.357C66.2278 21.6153 66.047 21.8265 65.8146 22.0441C65.582 22.2489 65.272 22.4217 64.8845 22.5626C64.497 22.7034 64.0061 22.7738 63.412 22.7738C62.6241 22.7738 61.8943 22.5881 61.2226 22.2169C60.5639 21.8329 60.0342 21.2889 59.6338 20.585C59.2334 19.8682 59.0332 19.0106 59.0332 18.0122ZM64.1095 20.6618C64.8587 20.6618 65.4851 20.425 65.9889 19.9514C66.4927 19.4778 66.7446 18.8122 66.7446 17.9546V17.7626C66.7446 16.8921 66.4927 16.2266 65.9889 15.7658C65.498 15.2922 64.8716 15.0554 64.1095 15.0554C63.3603 15.0554 62.7338 15.2922 62.2301 15.7658C61.7264 16.2266 61.4745 16.8921 61.4745 17.7626V17.9546C61.4745 18.8122 61.7264 19.4778 62.2301 19.9514C62.7338 20.425 63.3603 20.6618 64.1095 20.6618Z" fill="#192657"/>
<path d="M75.5551 23.0042C74.5992 23.0042 73.7403 22.8122 72.9782 22.4281C72.2161 22.0441 71.6154 21.4873 71.1763 20.7578C70.7371 20.0282 70.5176 19.1514 70.5176 18.1274V17.8201C70.5176 16.7961 70.7371 15.9193 71.1763 15.1897C71.6154 14.4602 72.2161 13.9034 72.9782 13.5194C73.7403 13.1353 74.5992 12.9434 75.5551 12.9434C76.511 12.9434 77.3699 13.1353 78.132 13.5194C78.8941 13.9034 79.4948 14.4602 79.9339 15.1897C80.3731 15.9193 80.5927 16.7961 80.5927 17.8201V18.1274C80.5927 19.1514 80.3731 20.0282 79.9339 20.7578C79.4948 21.4873 78.8941 22.0441 78.132 22.4281C77.3699 22.8122 76.511 23.0042 75.5551 23.0042ZM75.5551 20.8537C76.3043 20.8537 76.9243 20.617 77.4151 20.1433C77.906 19.657 78.1514 18.9657 78.1514 18.0697V17.8778C78.1514 16.9818 77.906 16.2969 77.4151 15.8233C76.9372 15.337 76.3172 15.0938 75.5551 15.0938C74.8059 15.0938 74.186 15.337 73.6951 15.8233C73.2043 16.2969 72.9588 16.9818 72.9588 17.8778V18.0697C72.9588 18.9657 73.2043 19.657 73.6951 20.1433C74.186 20.617 74.8059 20.8537 75.5551 20.8537Z" fill="#192657"/>
<path d="M81.9737 22.7362V13.2129H84.415V22.7362H81.9737ZM83.1943 12.0994C82.7552 12.0994 82.3806 11.9586 82.0706 11.677C81.7735 11.3953 81.625 11.0241 81.625 10.5634C81.625 10.1026 81.7735 9.73137 82.0706 9.44974C82.3806 9.1682 82.7552 9.02734 83.1943 9.02734C83.6465 9.02734 84.0211 9.1682 84.3182 9.44974C84.6152 9.73137 84.7637 10.1026 84.7637 10.5634C84.7637 11.0241 84.6152 11.3953 84.3182 11.677C84.0211 11.9586 83.6465 12.0994 83.1943 12.0994Z" fill="#192657"/>
<path d="M86.25 26.5754V13.2121H88.6527V14.3642H89.0016C89.2207 13.993 89.5628 13.6666 90.0286 13.3849C90.4935 13.0905 91.1587 12.9434 92.0241 12.9434C92.7992 12.9434 93.516 13.1353 94.1743 13.5194C94.8334 13.8905 95.3628 14.4409 95.7633 15.1706C96.1637 15.9002 96.364 16.7834 96.364 17.8201V18.1274C96.364 19.1641 96.1637 20.0474 95.7633 20.7769C95.3628 21.5066 94.8334 22.0634 94.1743 22.4474C93.516 22.8186 92.7992 23.0042 92.0241 23.0042C91.4423 23.0042 90.9515 22.9337 90.5511 22.793C90.1635 22.665 89.8472 22.4986 89.6023 22.2937C89.3694 22.0762 89.1821 21.8586 89.0403 21.641H88.6914V26.5754H86.25ZM91.2876 20.8922C92.0498 20.8922 92.6763 20.6553 93.1671 20.1817C93.6707 19.6954 93.9225 18.9914 93.9225 18.0697V17.8778C93.9225 16.9562 93.6707 16.2585 93.1671 15.7849C92.6634 15.2986 92.037 15.0554 91.2876 15.0554C90.5382 15.0554 89.9117 15.2986 89.4081 15.7849C88.9045 16.2585 88.6527 16.9562 88.6527 17.8778V18.0697C88.6527 18.9914 88.9045 19.6954 89.4081 20.1817C89.9117 20.6553 90.5382 20.8922 91.2876 20.8922Z" fill="#192657"/>
<path d="M101.724 23.0042C100.471 23.0042 99.4436 22.7354 98.6427 22.1978C97.8426 21.6601 97.3579 20.8922 97.1895 19.8937L99.4376 19.3178C99.5279 19.7657 99.6765 20.1178 99.8828 20.3738C100.103 20.6298 100.367 20.8153 100.678 20.9306C101 21.0329 101.349 21.0842 101.724 21.0842C102.292 21.0842 102.712 20.9881 102.983 20.7962C103.254 20.5914 103.39 20.3418 103.39 20.0474C103.39 19.753 103.261 19.529 103.002 19.3753C102.745 19.2089 102.331 19.0746 101.762 18.9722L101.22 18.8761C100.548 18.7481 99.9343 18.5753 99.3792 18.3578C98.824 18.1274 98.378 17.8137 98.042 17.417C97.7068 17.0201 97.5384 16.5081 97.5384 15.8809C97.5384 14.9338 97.8873 14.2106 98.5851 13.7113C99.2821 13.1994 100.2 12.9434 101.336 12.9434C102.409 12.9434 103.3 13.1802 104.01 13.6538C104.72 14.1274 105.185 14.7482 105.405 15.5162L103.138 16.2073C103.035 15.721 102.822 15.3753 102.499 15.1706C102.189 14.9658 101.801 14.8633 101.336 14.8633C100.871 14.8633 100.516 14.9465 100.27 15.1129C100.025 15.2666 99.9025 15.4842 99.9025 15.7658C99.9025 16.073 100.031 16.3033 100.29 16.4569C100.548 16.5977 100.897 16.7066 101.336 16.7834L101.878 16.8794C102.602 17.0073 103.254 17.1801 103.836 17.3977C104.43 17.6025 104.895 17.9033 105.231 18.3002C105.58 18.6842 105.754 19.2089 105.754 19.8746C105.754 20.873 105.385 21.6474 104.649 22.1978C103.926 22.7354 102.951 23.0042 101.724 23.0042Z" fill="#192657"/>
<path d="M110.683 22.8897C109.934 22.8897 109.275 22.7233 108.707 22.3906C108.152 22.0449 107.719 21.5713 107.408 20.9697C107.099 20.3682 106.943 19.6769 106.943 18.8961V13.2129H109.385V18.7041C109.385 19.4209 109.559 19.9585 109.908 20.3169C110.269 20.6753 110.78 20.8545 111.439 20.8545C112.187 20.8545 112.769 20.6113 113.183 20.1249C113.596 19.6257 113.802 18.9345 113.802 18.0513V13.2129H116.244V22.7362H113.841V21.4881H113.493C113.337 21.8081 113.047 22.1217 112.62 22.4289C112.194 22.7362 111.548 22.8897 110.683 22.8897Z" fill="#192657"/>
<path d="M118.09 22.7354V13.2121H120.492V14.249H120.841C121.008 13.9289 121.287 13.6538 121.673 13.4233C122.061 13.1802 122.572 13.0586 123.205 13.0586C123.889 13.0586 124.438 13.193 124.852 13.4617C125.265 13.7177 125.581 14.0569 125.801 14.4793H126.149C126.369 14.0698 126.679 13.7306 127.08 13.4617C127.48 13.193 128.048 13.0586 128.785 13.0586C129.379 13.0586 129.915 13.1866 130.393 13.4426C130.884 13.6857 131.271 14.0633 131.556 14.5754C131.852 15.0745 132.001 15.7081 132.001 16.4762V22.7354H129.559V16.649C129.559 16.1241 129.424 15.7338 129.153 15.4778C128.881 15.209 128.5 15.0745 128.01 15.0745C127.455 15.0745 127.021 15.2538 126.711 15.6122C126.415 15.9577 126.266 16.457 126.266 17.1098V22.7354H123.825V16.649C123.825 16.1241 123.689 15.7338 123.418 15.4778C123.146 15.209 122.766 15.0745 122.274 15.0745C121.719 15.0745 121.287 15.2538 120.977 15.6122C120.679 15.9577 120.531 16.457 120.531 17.1098V22.7354H118.09Z" fill="#192657"/>
</mask>
<g mask="url(#mask1_1061_240)">
<rect opacity="0.4" x="-462" width="1280" height="32" fill="#0D0E10"/>
</g>
</g>
<defs>
<linearGradient id="paint0_linear_1061_240" x1="6.03652" y1="6.22222" x2="27.8338" y2="6.22223" gradientUnits="userSpaceOnUse">
<stop stop-color="#64C2DB"/>
<stop offset="0.307292" stop-color="#7476ED"/>
<stop offset="0.604167" stop-color="#C994DF"/>
<stop offset="1" stop-color="#E56F8C"/>
</linearGradient>
</defs>
</svg>
