<svg width="317" height="207" viewBox="0 0 317 207" fill="none" xmlns="http://www.w3.org/2000/svg">
<path d="M88.3244 134.529C88.6647 134.402 88.8271 133.884 88.6875 133.378L88.7735 133.333C89.3933 133.007 88.9784 132.693 89.045 132.385C89.254 131.419 89.5167 130.454 89.708 129.489C89.7629 129.214 89.6279 128.944 89.6138 128.664C89.601 128.439 89.5465 128.154 89.6743 127.979L90.7696 126.498C90.8364 124.817 90.9105 123.012 90.9328 122.492C90.9543 121.971 92.0513 120.544 92.0493 120.199C92.0478 119.853 92.1777 118.613 92.2398 118.218C92.3011 117.823 92.5818 116.486 92.601 116.118C92.6184 115.748 93.2647 114.52 93.3583 114.231C93.4496 113.942 93.4676 113.027 93.0836 113.308C92.6973 113.588 91.9216 114.497 91.406 114.923C90.8918 115.348 90.268 117.137 89.9808 117.458C89.6923 117.78 88.4038 119.368 87.7394 120.283L87.1287 121.102L86.548 121.879C86.0776 122.822 85.017 124.814 84.1879 126.309C83.3631 127.804 80.1024 133.114 79.1011 134.889L78.2204 136.516C77.3995 138.035 76.6109 139.564 75.7848 141.082L75.2679 142.031C74.7613 143.088 73.7867 144.908 73.1005 146.073C72.4134 147.238 70.3826 151.353 69.7256 152.532C69.0708 153.712 66.9591 158.305 66.1379 160.005L65.2475 161.501L64.3865 162.948C63.6314 164.59 62.4724 166.985 61.8098 168.27C61.1472 169.556 59.3947 173.221 59.3592 173.548C59.3216 173.875 58.231 175.063 58.0669 175.676L57.5473 176.253L57.0779 176.776C56.7898 177.511 56.4072 178.39 56.2275 178.73C56.0464 179.07 55.2285 180.443 54.8455 181.036L54.5432 181.589L54.2044 182.211C53.8675 182.907 53.0106 184.459 52.2989 185.661C51.588 186.865 49.2639 190.565 48.8495 191.258C48.4351 191.951 46.9568 194.292 46.5268 194.937L46.1491 195.527L45.804 196.065C45.3285 196.605 44.9258 197.286 44.9104 197.585C44.892 197.883 43.6267 198.84 43.1584 199.276L42.7472 199.703L42.2962 200.175C41.7962 200.685 41.1951 201.267 40.9561 201.465C40.7189 201.666 40.1159 202.399 40.0375 202.569L40.0247 202.57C39.4405 202.487 39.0522 202.669 38.6683 203.226C38.4645 203.524 38.0073 203.731 37.6989 204.054C37.3747 204.396 36.8752 204.607 36.4514 204.876L35.9672 205.182C35.4395 205.524 34.5876 205.983 34.0765 206.199C33.5649 206.418 31.3965 206.786 30.4043 206.881L29.7837 206.135L29.5117 205.809C28.7437 205.787 28.1885 205.687 28.2758 205.591C28.363 205.494 28.2516 204.95 27.7752 204.664L27.2909 204.658L26.8101 204.653C26.3454 204.545 25.9277 204.458 25.8779 204.46C25.8295 204.46 25.4282 204.239 24.9938 204.001C24.5572 203.763 22.3598 202.539 21.1014 201.759L20.2791 200.692L19.0483 199.093C18.7734 196.92 18.5793 195.08 18.6167 195.005L18.6006 194.959L18.4665 194.537C18.3037 194.078 18.1862 193.346 18.2008 192.912L18.2684 192.509C18.3439 192.049 18.3447 191.585 18.3129 191.137L18.2481 190.222C18.3744 189.193 18.3953 187.814 18.2971 187.16L18.2944 186.542L18.29 185.229C18.3551 183.771 18.3629 182.163 18.3087 181.657C18.2559 181.149 17.882 179.873 17.6529 180.12L17.5017 180.352L16.6986 181.583C15.8338 182.944 14.5491 185.028 13.8432 186.209C13.1381 187.392 11.0529 191.063 10.5484 191.655L10.1147 192.214L10.0716 192.267C10.2814 192.486 10.1317 193.158 9.73802 193.758C9.34514 194.36 8.02559 196.297 7.76254 196.659L7.5565 196.675L6.26841 196.765C6.5134 197.529 6.38588 198.271 5.98573 198.414C5.58474 198.555 4.51843 199.441 4.33678 199.824C4.15818 200.21 3.09769 200.117 3.23702 199.435C3.37719 198.754 4.86001 197.366 4.24261 197.421L3.89965 197.472C3.52624 197.527 3.2096 197.676 3.39684 198.067L3.58664 198.462C3.24117 198.602 1.88133 198.597 0.565402 198.447L1.05013 197.103C1.26598 196.5 1.07261 196.352 0.659871 196.074L0.40883 195.906C0.403627 195.284 0.556754 194.858 0.750361 194.959C0.944815 195.061 1.63401 195.025 1.91064 194.685L2.08827 194.36L2.19118 194.178C2.1844 193.942 1.96057 193.796 1.6932 193.855L1.45131 193.897L1.38761 193.909C1.24375 193.884 1.16327 193.054 1.20453 192.065L1.32344 191.146L1.35528 190.897C1.64676 190.618 2.10538 190.18 2.37612 189.922L2.11887 189.643C1.78897 189.288 1.95756 189.029 2.42651 188.77C2.58401 188.683 2.8154 188.375 2.7939 188.353C1.93492 187.48 3.42839 186.895 3.49499 186.179L3.51927 185.932C3.55143 185.651 3.73335 185.143 3.92353 184.808L4.09757 184.504C4.32026 184.117 4.5753 183.74 4.76428 183.344L5.15028 182.547C5.68247 181.714 6.3465 180.611 6.62229 180.1C6.89943 179.588 7.75812 178.054 8.32925 177.832L8.31056 177.146C8.29891 176.686 8.5756 176.156 8.78693 175.67C8.90478 175.397 9.10073 175.041 9.35036 174.913L9.93178 174.609C10.1538 174.117 11.2258 172.448 12.3195 170.902L13.85 170.035L14.5173 169.655C15.1687 169.183 16.0512 168.567 16.4818 168.289C16.9116 168.009 18.6424 166.844 19.3529 166.277L20.2171 166.25C20.256 166.246 20.2737 165.809 20.6866 165.876L21.4535 166.001C22.3123 166.09 23.1742 166.167 23.3657 166.169L23.3788 166.229C23.6844 167.542 25.3327 167.323 26.1821 168.059L26.8015 168.595C27.9881 168.7 29.158 168.993 29.4005 169.245L29.6196 169.366L30.9378 170.094C31.089 171.532 31.1186 174.32 31.0019 176.29L31.7652 177.86C31.785 177.901 31.6904 178.009 31.7135 178.04L32.084 178.542C31.9988 179.223 31.8913 180.445 31.8458 181.257L31.8582 181.986C31.8683 182.664 31.9841 183.321 31.9911 183.997L31.9975 184.681C31.9448 185.443 31.9163 186.395 31.9377 186.797C31.9574 187.196 32.0194 188.866 32.0415 189.613L32.0158 190.297C32.0025 190.694 31.7849 191.448 31.8477 191.455C32.6143 191.535 32.1097 192.189 32.2568 192.523L32.4008 192.845C32.2938 193.424 32.4481 193.7 32.7435 193.46L32.8945 193.239L33.5259 192.322C34.0303 191.249 34.6298 189.989 34.8592 189.52C35.0873 189.052 36.5043 187.373 36.5588 187.32C36.6142 187.268 36.8393 186.834 37.0724 186.437C37.3064 186.035 38.0644 184.458 38.4234 183.817C38.7829 183.174 40.0338 181.046 40.4364 180.518C40.8381 179.99 41.3339 178.36 41.3625 178.29C41.3918 178.22 41.7185 177.831 41.9694 177.498C42.2204 177.164 42.9333 175.874 43.1922 175.536C43.4499 175.198 43.9168 174.03 43.9821 173.837C44.0501 173.641 44.6108 173.076 44.6867 172.866L44.7614 172.667C44.8878 172.329 45.0414 171.993 45.1454 171.653C45.3784 170.903 46.3105 170.369 46.3643 169.632L46.4299 168.735C47.0092 167.938 47.6585 166.958 47.8693 166.552C48.0831 166.148 48.9387 164.802 49.3183 164.464L49.0401 163.971L48.9564 163.821C49.3296 163.404 49.8258 162.864 50.0626 162.624C50.2973 162.384 50.8758 161.17 51.1649 160.6C51.4549 160.031 52.5574 157.677 53.0912 156.642C53.6229 155.606 55.4384 151.999 55.9683 150.925C56.4964 149.854 58.3712 146.136 58.9355 145.042C59.4998 143.948 61.299 140.321 61.7064 139.418L62.1025 138.608L62.1164 138.576C62.4035 138.614 62.7701 138.252 62.9306 137.773C63.0912 137.294 63.7429 136.077 64.0709 135.989L64.1126 135.88C64.4031 135.155 64.3068 134.457 64.7792 133.654C65.2004 132.937 65.7545 132.278 66.1545 131.556L66.5283 130.886C66.9285 130.144 67.6869 128.79 68.2139 127.877C68.7392 126.962 70.4357 124.167 70.6382 123.587C70.8426 123.005 72.0834 121.158 72.4605 120.646C72.8376 120.135 73.9373 118.445 74.1218 118.054L74.2245 117.694C74.3368 117.296 74.51 116.975 74.9613 116.789L75.5124 116.559C75.4771 116.132 75.5391 115.758 75.6547 115.73C75.769 115.703 76.0131 115.358 75.9461 115.027L76.0197 114.986C76.6939 114.612 76.5523 113.833 76.9132 113.563C77.4098 113.196 77.6777 112.53 78.3727 112.417L78.4394 112.407C78.5104 112.424 78.6948 112.11 78.8478 111.711C79.002 111.31 80.0899 110.011 80.3794 109.613C80.6697 109.217 81.6397 107.909 81.8928 107.597C82.1464 107.282 83.4589 106.453 83.9342 106.165L83.7863 105.543C83.7297 105.308 84.2498 104.821 84.5756 104.508C85.5849 103.538 86.4651 102.456 87.6928 101.671C88.1641 101.371 88.2255 100.61 89.0135 100.57C89.7794 100.53 89.6703 99.7556 90.0829 99.4755L90.5507 99.1548C91.1626 98.9552 92.1841 98.515 92.8202 98.1723C93.4576 97.8288 95.3362 96.7067 95.5667 96.3823L95.9665 96.7229C96.0425 96.7894 96.5008 96.3619 96.9035 96.2234L98.5544 95.6496C99.9726 96.1532 101.198 96.6308 101.274 96.7101L101.25 96.7725C100.888 97.676 101.758 97.7022 102.217 97.9433C102.869 98.2854 103.469 98.68 104.091 99.0522L105 99.5932C106.189 99.9523 107.641 100.497 108.226 100.804L108.261 101.554C108.291 102.223 108.574 102.841 108.743 103.481C108.786 103.64 108.889 103.81 108.844 103.964L108.317 105.749C108.439 107.621 108.47 110.124 108.384 111.305L108.004 112.337L107.549 113.571C107.161 114.928 106.799 116.099 106.744 116.169L106.758 116.208L107.297 117.721C106.54 119.431 105.861 121.157 105.785 121.555C105.711 121.955 105.061 123.756 104.712 124.672L104.885 125.5L104.919 125.659C104.902 125.846 104.751 126.442 104.585 126.984C104.421 127.526 103.713 129.844 103.45 130.942C103.19 132.041 102.285 135.564 102.133 136.359C101.981 137.153 101.388 139.903 101.304 140.7C101.224 141.497 100.861 143.995 100.705 144.469L100.568 144.902C100.321 145.682 100.092 146.444 100.017 147.245L99.9641 147.812C99.6949 148.508 99.4362 149.287 99.3894 149.536L99.4132 149.758L99.4998 150.592C99.1467 151.693 98.8784 152.672 98.9044 152.767L98.9727 152.801L99.0715 152.853C99.2494 152.87 99.2998 153.445 99.1847 154.126C99.0674 154.808 98.5402 156.93 98.3114 157.314C98.0826 157.697 98.7626 158.599 98.7406 158.784L98.7158 158.961L98.4646 160.71C98.6655 162.546 98.9054 164.183 98.9964 164.341C99.0882 164.501 99.5942 164.897 99.7724 164.677C99.9528 164.457 100.739 163.918 101.085 163.738L101.348 163.39L101.888 162.677C102.57 161.926 103.666 160.701 104.325 159.952L104.849 159.241C105.203 158.755 105.599 158.345 105.972 157.898L106.508 157.255C107.014 157.31 107.499 157.161 107.582 156.922C107.669 156.685 107.828 156.052 107.752 156.038C107.675 156.025 107.425 155.819 107.718 155.671C108.013 155.525 108.834 155.113 108.861 155.099L108.829 155.018L108.693 154.683C108.803 154.281 109.078 153.658 109.301 153.302C109.524 152.944 110.977 151.275 111.609 150.131L111.776 149.916C111.905 149.75 112.308 149.72 112.414 149.556C112.523 149.39 112.37 149.13 112.431 148.919C112.453 148.847 112.825 148.716 112.955 148.758L113.286 148.864C113.637 149.069 114.064 148.988 114.238 148.684C114.409 148.38 114.806 147.604 114.767 147.578C114.729 147.554 114.441 147.644 114.211 147.839C113.981 148.031 113.348 148.327 113.313 148.073C113.279 147.816 114.257 146.938 114.886 146.541L114.722 145.738C114.657 145.431 115.257 144.574 115.424 144.574L116.363 144.586C116.428 143.988 116.786 143.084 117.155 142.575L117.044 142.382L116.61 141.641C117.255 141.578 117.877 141.201 117.993 140.803L118.115 140.445C118.287 139.959 118.913 139.53 119.064 139.048C119.185 138.659 120.259 139.178 119.707 138.381C119.608 138.235 120.119 137.735 120.071 137.486L119.947 136.825C120.483 136.642 121.003 136.267 121.101 135.997C121.198 135.727 121.671 135.046 121.929 135.094C122.188 135.141 122.461 133.949 122.746 133.323C123.029 132.698 123.797 131.024 123.923 131.006C124.05 130.99 124.461 130.737 124.291 130.507L124.223 130.307L124.177 130.173C124.223 129.984 124.551 129.897 124.909 129.982C125.269 130.066 125.352 128.835 125.724 128.507L125.397 128.025C125.191 127.725 126.35 128.222 125.989 127.364L125.731 126.75C126.411 126.811 127.074 126.796 127.203 126.718C127.333 126.639 127.692 126.187 127.479 126.043C127.268 125.898 127.002 125.342 127.341 125.116C127.678 124.887 127.843 123.438 128.16 122.737C128.478 122.038 130.014 120.362 129.773 120.056L129.865 119.866L130.167 119.26C130.643 118.656 131.186 117.768 131.371 117.284C131.557 116.802 132.783 115.863 132.741 115.612L132.674 115.617L132.02 115.659C132.205 115.262 132.626 114.582 132.956 114.149C133.287 113.716 133.951 112.388 134.167 112.338L134.351 112.238L134.649 112.083C134.928 111.773 135.034 111.546 134.889 111.578C134.744 111.613 134.492 111.557 134.719 111.366C134.946 111.172 135.617 110.585 135.44 110.126C135.261 109.667 136.171 108.423 136.28 108.49L136.384 108.596L136.504 108.716C136.542 108.782 136.629 108.67 136.698 108.465C136.767 108.26 136.975 107.636 136.976 107.635C136.976 107.635 136.899 107.325 137.022 106.982C137.144 106.638 137.608 105.534 137.848 105.285C138.087 105.036 137.964 104.133 138.031 103.947C138.096 103.762 138.872 102.833 139.182 102.253L139.626 101.947C140.208 101.549 139.807 101.038 139.864 101.035L141.337 100.958C141.11 100.059 141.243 98.6646 141.632 97.8603L142.041 97.1239C142.331 96.6079 142.301 95.7889 143.351 95.7854C143.475 95.7857 143.783 95.2957 143.857 95.0213C144.126 94.0451 144.613 93.1537 145.343 92.3363L145.411 92.2595C145.868 92.3689 146.176 92.2057 146.095 91.8977C146.016 91.5911 146.604 90.3485 146.863 89.9141L147.455 89.8941L147.48 89.8938C147.54 89.69 147.334 89.3756 147.025 89.1935L147.505 89.092C148.146 88.9551 148.499 88.7053 148.371 88.221C148.178 87.4898 148.535 86.9935 149.25 86.7284C150.09 86.4143 149.138 85.8278 149.804 85.5114C150.243 85.3006 150.642 84.9841 151.042 84.6896C151.097 84.6491 151.041 84.4742 151.044 84.3598L151.061 83.6388C151.69 83.1498 152.746 82.5642 153.406 82.3375L152.947 81.6476C152.919 81.6069 153.173 81.3521 153.327 81.2324C153.728 80.9234 154.436 80.759 154.043 80.1024C154.018 80.06 154.405 79.7547 154.615 79.5878C154.911 79.3495 155.471 79.2279 155.123 78.7379L155.077 78.6712C155.134 78.5285 155.485 77.8757 155.858 77.2208C156.229 76.5645 158.239 75.3165 158.407 74.9619C158.576 74.6066 159.865 73.4693 160.672 73.0386L161.087 72.4851L161.515 71.913C162.057 71.7632 162.679 71.4448 162.895 71.2046C163.113 70.9613 164.246 70.0768 164.783 69.6049L165.483 69.7909C165.594 69.8204 165.835 69.5812 166.016 69.4687L166.727 69.0243C167.569 68.8891 168.825 68.712 169.519 68.6297L170.152 68.7018C170.92 68.7868 171.466 68.9934 171.757 69.6476L171.851 69.8643C172.182 69.987 172.607 70.1445 172.793 70.2127C172.982 70.2828 174.008 71.4704 174.211 71.6068L174.423 71.6889C174.909 71.8831 175.414 72.0438 175.901 72.2336C176.136 72.3267 176.438 72.8984 176.505 73.1642C176.583 73.4739 176.329 73.9634 176.987 73.9903L177.174 73.9977C177.313 74.4154 177.305 74.7473 177.155 74.7367C177.008 74.7289 176.624 74.8762 176.595 75.0838C176.568 75.2928 176.855 75.8589 177.154 76.3367L177.313 76.8315L177.458 77.2792C177.343 77.7768 177.137 78.5797 177.001 79.0622C176.864 79.5456 177.406 80.7017 177.19 80.9696C176.976 81.239 177.272 82.7032 177.08 83.7323L177.15 84.6557L177.252 85.9947C177.334 87.4777 177.52 88.8689 177.66 89.0844C177.801 89.3013 177.202 89.9007 177.339 90.081C177.477 90.2582 176.944 91.8228 176.856 93.0432L177.463 93.9502C177.69 94.2889 177.205 94.5457 177.204 94.6721L177.201 95.4295C177.362 96.2308 177.72 96.9139 177.995 96.9517L177.608 97.287C177.509 97.3727 177.327 97.5309 177.343 97.5564C177.908 98.4954 177.6 99.6561 177.722 100.706C177.752 100.986 177.962 101.234 178.149 101.452L178.508 101.871C179.076 101.51 179.866 100.87 180.262 100.454C180.659 100.034 182.191 98.9545 182.754 98.9567L182.865 98.1934C182.919 97.819 183.268 97.4291 183.481 97.0443C183.519 96.9748 184.289 96.0755 184.339 96.082L184.708 96.143C184.945 95.8786 185.108 95.2756 185.071 94.8026C185.033 94.3292 186.507 94.0322 186.553 93.8906L186.509 93.8094C186.152 93.169 187.07 92.877 187.199 92.9161C188.104 93.1884 188.181 92.3557 188.529 91.993L188.838 91.6691C188.948 91.1806 188.992 90.6924 188.933 90.5849C188.876 90.4765 188.653 90.2009 188.655 90.0472C188.656 89.8923 188.828 89.4132 189.055 89.3168C189.28 89.219 190.001 88.6894 190.217 88.5976C190.434 88.5071 190.945 88.0787 190.715 87.8879C190.484 87.6958 190.032 87.0051 190.289 86.8421C190.548 86.6782 191.147 86.1615 191.141 85.9967C191.134 85.8318 191.426 85.5625 191.804 85.759L192.134 85.0027L192.282 84.6666C192.537 84.3234 193.067 83.5669 193.459 82.9842L193.069 82.4342C193.02 82.3657 193.168 82.0767 193.289 82.0016C193.409 81.9274 193.636 81.9622 193.782 82.0088L194.062 82.0947C194.386 82.241 194.696 82.0655 194.748 81.7034L194.841 81.4171C194.887 81.2662 195.155 81.0792 195.127 80.9957L195.07 80.846C194.974 80.6945 195.006 80.5521 195.14 80.5271C195.274 80.5042 195.608 80.2421 195.373 80.019C195.138 79.7973 194.752 79.1699 195.302 79.3761L195.525 79.2743L195.75 79.1695C195.879 78.8018 196.285 77.5676 196.653 76.4308L197.116 75.4256C197.205 75.2361 197.477 75.2571 197.59 75.4733L197.63 75.5513C197.561 75.7488 197.72 75.7741 197.984 75.6068C198.246 75.4411 198.879 74.8897 198.814 74.7428C198.749 74.5981 198.683 74.0875 198.84 73.9881C198.996 73.8896 199.411 73.3802 199.304 73.1477C199.197 72.9167 199.084 72.1574 199.31 72.0147C199.535 71.872 200.233 71.09 200.295 70.6356C200.356 70.1813 200.835 68.9554 200.964 68.8946L201.091 68.8632C201.34 68.7995 201.752 68.807 201.815 68.6922L202.041 68.2875C202.174 67.8088 202.334 66.8485 202.397 66.1551L203.497 65.0491C203.588 64.9556 203.697 64.7327 203.662 64.7055L202.795 63.9976C203.44 63.1382 204.245 62.3467 204.58 62.2414L204.874 62.2245C205.249 62.2029 205.569 62.3954 205.898 61.8654L206.341 61.1562C206.174 60.7194 206.727 59.937 207.573 59.4161L207.605 58.4867C207.605 58.466 208.083 58.449 208.187 58.3299L208.924 57.4876C208.455 56.6482 208.653 55.6848 209.367 55.3435L209.434 55.4231L209.737 55.7777C210.056 55.5535 210.533 54.9772 210.791 54.4979L210.297 54.4309C209.621 54.3423 209.928 53.9752 210.059 53.6894L210.348 53.0536C210.727 52.3566 211.321 51.7927 211.664 51.8008C212.011 51.8085 212.973 51.0696 212.653 51.199C212.333 51.3285 211.532 51.481 211.542 51.2716C211.552 51.06 212.246 50.3805 212.939 50.1576L212.779 49.3568C212.644 48.6591 213.497 48.6839 213.794 48.3029L213.988 48.0556C214.167 47.7299 214.441 47.5302 214.598 47.6114C214.756 47.6918 215.199 47.6326 215.276 47.3208C215.356 47.0074 214.621 46.8228 214.987 46.6601C215.354 46.4974 215.217 45.4702 215.45 45.2432C215.686 45.0153 216.309 44.3464 216.322 44.2723L216.365 44.2279C216.885 43.713 217.885 43.6074 217.987 42.7502L218.055 42.1881C218.034 41.5759 218.574 41.2358 219.252 41.4318L218.868 40.3377C218.705 39.8767 219.063 39.0021 219.957 38.5898C220.196 38.4778 220.36 38.0958 220.502 37.8204C220.681 37.4718 220.756 37.0882 220.958 36.7517L221.592 35.6907C222.452 35.7963 223.297 35.4511 223.466 34.9208L223.655 34.4501C223.695 34.3475 223.884 34.2599 224.017 34.1886L224.882 33.7271C224.785 33.2461 224.401 32.6192 224.026 32.3339L224.627 31.9706L224.933 31.784C225.185 31.5437 225.47 31.2166 225.566 31.0585L225.528 30.981L225.335 30.5902C225.685 30.4435 225.959 30.5521 225.944 30.8305L226.033 30.8506C226.323 30.9133 226.663 30.8896 226.982 30.8324C227.03 30.8247 227.09 30.4504 227.111 30.2492C227.131 30.0445 227.189 29.786 227.087 29.6572C226.991 29.5356 226.443 29.6218 226.888 29.2927L227.342 28.9586C227.979 28.7036 228.421 28.352 228.327 28.1767C228.23 28.0031 228.023 27.4054 228.093 27.2749L228.192 27.2064C228.546 26.9615 228.902 26.717 229.28 26.5154L230.181 26.0332C230.173 25.5758 230.352 25.126 230.583 25.0328C230.814 24.9373 231.418 24.6314 231.695 24.2138L232.232 24.477L232.287 24.5042C232.665 24.1049 233.023 23.465 233.082 23.0837L233.272 22.8675L233.577 22.5219C234.054 22.2389 234.627 21.8327 234.85 21.6181C235.074 21.4014 235.621 21.8705 235.697 21.83C235.773 21.7909 236.344 21.3278 236.85 20.9283C237.357 20.5289 239.025 20.3443 238.716 20.5397C238.409 20.7342 238.326 21.3598 239.079 21.5818L239.496 20.5549C239.676 20.1143 241.073 20.0357 241.211 20.4591L241.432 21.1425C241.942 21.6724 242.853 22.2531 243.456 22.4346L243.976 22.6445C244.508 22.8583 245.05 23.0753 245.505 23.3824C245.848 23.6124 246.44 23.8937 245.6 24.4782C245.547 24.5135 245.654 24.8872 245.783 25.0233C245.964 25.2169 246.265 25.3099 246.458 25.498L246.535 25.5729C246.491 25.7723 246.376 25.933 246.281 25.9276C246.186 25.9237 245.866 26.1266 246.044 26.3968L246.149 26.586L246.376 26.9948C246.239 27.5081 245.987 28.3478 245.818 28.8644C245.647 29.3805 245.701 30.8249 245.639 30.9547C245.577 31.0858 245.568 31.5013 245.533 31.8053C245.5 32.1119 244.981 32.9699 245.307 32.8336C245.632 32.6972 246.146 33.3201 245.792 34.4956L246.133 35.4592C246.262 35.8194 245.685 35.576 245.624 35.6706L245.475 35.9062C245.409 36.2054 245.354 36.6177 245.353 36.8211C245.35 37.0241 245.682 37.4436 245.519 37.6292C245.36 37.8131 244.998 38.3335 245.151 38.2873C245.304 38.2389 245.984 38.4157 246.044 38.8698C246.103 39.3226 245.161 40.519 245.512 40.8866L245.605 41.2989C245.654 41.5145 245.258 41.9698 244.959 42.1984C244.554 42.5135 244.766 42.6761 244.8 42.9667L244.89 43.7382C244.843 44.6134 244.855 45.5263 244.917 45.7669C244.98 46.0088 244.841 46.593 244.649 46.444C244.455 46.2946 243.547 46.9823 243.32 47.3293L243.639 47.409L244.159 47.5419C243.907 47.7857 243.755 48.0816 243.819 48.1985L243.898 48.2875C244.122 48.5346 244.38 48.7547 244.584 49.0144C244.832 49.3312 244.9 49.5433 244.487 50.0753L243.907 50.824C244.404 51.5843 244.868 52.3672 244.937 52.5657C245.004 52.7659 244.956 53.6077 244.853 54.1241C244.75 54.6404 244.572 55.9971 244.73 55.9568C244.888 55.9187 245.37 55.8956 245.174 56.0645C244.977 56.233 244.509 56.9953 244.648 57.3201L244.913 57.4923L245.142 57.6448C245.559 57.6304 245.835 57.6923 245.754 57.7812C245.675 57.867 245.631 58.2781 246.006 58.3094C246.382 58.342 247.305 58.2985 247.346 58.1502C247.388 58.0032 247.63 57.5984 247.771 57.637C247.915 57.6773 248.735 57.4302 249.134 56.9617C249.531 56.4941 250.437 55.1558 250.726 55.2899C251.017 55.4253 251.657 54.6912 251.557 54.6735C251.459 54.6571 251.451 54.2204 251.919 53.7721C252.388 53.3229 253.73 52.2116 253.759 52.3941C253.788 52.5789 254.066 52.9946 254.287 52.7289C254.506 52.4641 254.957 51.7934 254.843 51.7735C254.726 51.7554 254.288 51.5857 254.53 51.5077C254.77 51.4292 255.321 51.247 255.425 51.2116C255.527 51.1735 256.048 50.8003 256.355 50.4574C256.663 50.1159 256.967 49.1696 256.573 49.1088C256.181 49.0494 256.95 48.2994 257.363 48.5244L257.918 48.3212L257.974 48.3005C258.065 48.3242 258.122 47.9724 258.103 47.5161C258.083 47.0629 259.311 45.9397 259.613 45.7072C259.912 45.4764 260.365 44.4023 260.484 44.1541C260.601 43.9067 261.655 43.7751 262.063 44.0784L262.446 43.2912L262.595 42.9864C263.097 42.6045 263.017 42.5026 262.42 42.7586L262.037 42.761L261.845 42.764C261.69 42.3794 261.782 41.9112 262.05 41.7251L262.181 41.7431L263.291 41.9013C263.122 41.2491 263.46 40.7867 264.043 40.8726L264.551 40.2032L264.895 39.7502C265.582 39.4167 266.195 39.0999 266.257 39.0436C266.321 38.9901 266.442 37.799 266.585 37.4078L266.817 37.0974C266.899 36.9857 267.395 36.9155 267.459 37.0011L267.813 37.4797C268.155 37.1275 268.62 36.4426 268.845 35.9582C269.069 35.4724 269.715 34.2404 269.807 34.2888C269.901 34.3385 270.015 34.18 269.775 33.789L270.054 33.2662C270.206 32.984 269.656 32.5637 270.341 32.3895C270.529 32.342 270.752 32.6969 270.974 32.8514L271.061 32.916C271.171 32.9463 271.219 32.5268 271.169 31.9853L271.258 31.4796L271.374 30.82C272.148 30.8523 272.945 30.9172 273.143 30.9628L273.276 30.895C273.603 30.7257 273.519 30.6735 273.302 30.4522L273.083 30.2268C273.147 29.7522 273.407 29.1079 273.665 28.7942C273.923 28.4806 274.772 27.462 274.995 27.1427C275.215 26.8206 275.948 25.9245 276.204 25.9406C276.459 25.9576 277.105 25.9679 277.129 25.9297C277.153 25.8924 277.11 25.7205 276.972 25.6332C276.835 25.545 276.663 25.1371 277.008 24.9937C277.351 24.8498 278.246 24.3454 278.06 24.2658C277.871 24.1842 277.644 23.6707 277.861 23.257L278.113 22.9753C278.246 22.8247 278.664 22.6562 278.751 22.7194C279.051 22.9317 278.973 23.2086 278.558 23.4389L278.481 23.4825C278.395 23.7209 278.922 23.7817 279.651 23.6187L279.375 22.8204C279.288 22.5709 279.324 22.2648 279.34 21.9798L279.383 21.207C280.029 20.931 280.839 20.6022 281.185 20.4737L281.48 20.3239L281.559 20.2853C281.607 20.1142 281.529 20.0093 281.386 20.0509C281.242 20.0933 280.784 20.079 280.893 19.8653C281.002 19.6538 281.463 19.1326 281.619 19.2909C281.777 19.4505 282.185 19.793 282.227 19.7495C282.267 19.7056 282.332 19.161 282.286 18.6341L283.164 18.7899L283.285 18.8112C283.707 18.2376 283.681 17.8649 283.231 17.9825L282.975 17.9698C282.871 17.9647 282.765 17.5866 282.774 17.5807C283.36 17.2302 283.957 16.8972 284.56 16.5828C284.581 16.5714 284.683 16.761 284.766 16.836L284.804 16.87C284.926 16.8719 285.068 16.5864 285.123 16.2362C285.177 15.8861 285.654 14.8416 286.039 14.8313L286.343 14.849L286.671 14.8686C287.073 14.9256 287.424 14.7674 287.453 14.5183C287.477 14.2696 287.818 13.6272 288.161 13.5097L288.442 13.3749C288.468 13.3623 288.421 13.0367 288.327 12.9199L288.216 12.787C288.014 12.7012 288.01 12.5117 288.21 12.368L288.358 12.3702C288.701 12.3804 289.169 12.4037 289.164 12.0253C289.154 11.2029 290.055 10.8955 290.382 10.2672L290.777 9.51021C291.133 9.92507 291.452 10.0691 291.483 9.82759C291.516 9.58661 291.863 8.88789 292.127 9.20589L292.074 9.33324C291.889 9.76797 292.083 9.87822 292.461 9.82852C292.692 9.79872 293.128 9.63678 293.13 9.57956L293.167 8.67454C293.924 8.03214 294.573 7.20931 294.61 6.84378L294.778 6.56278L294.93 6.30695C295.25 6.08191 295.734 5.66831 296.007 5.38803C296.278 5.10726 297.381 4.44262 297.901 3.98755L298.532 4.26264C298.697 4.33301 299.201 4.19996 299.242 4.10228L299.498 3.47631C300.101 3.30462 300.875 2.9216 301.217 2.62443C301.561 2.32774 303.203 2.24211 303.823 2.14438C304.443 2.04881 305.883 0.862738 306.083 0.848934L306.275 0.835838L307.674 0.729962C309.214 0.609774 310.755 0.595744 311.094 0.698409C311.438 0.802037 312.41 1.25381 312.654 1.2362C312.9 1.21775 312.925 1.84459 312.935 1.87566C312.944 1.90405 313.275 2.52838 313.686 3.19684L314.212 3.66943C314.485 3.91365 314.967 3.95977 315.352 4.10135L315.736 4.24161C316.198 4.41673 316.512 4.81738 316.436 5.13049L316.235 5.33848L315.905 5.68085C315.681 5.42236 315.364 5.28103 315.201 5.36748L315.165 5.46176C315.131 5.54728 315.331 5.71756 315.298 5.74938L315.13 5.91984C314.909 6.07848 314.72 6.12689 314.71 6.02448C314.701 5.92474 314.428 5.84962 314.126 6.08783C313.823 6.32824 312.908 5.82363 312.578 5.91276C312.246 6.00054 311.23 5.58252 310.96 5.56913C310.691 5.55577 309.885 5.77863 309.778 5.90648C309.672 6.03346 309.225 6.27926 309.02 6.15159L308.808 6.06954C308.788 6.0616 308.636 6.32534 308.508 6.41393L308.309 6.55108C308.06 6.66326 307.371 6.93288 306.777 7.14927C306.184 7.367 304.331 8.45928 303.838 8.85243C303.344 9.24777 301.97 10.4301 301.854 10.5652C301.736 10.7021 301.093 11.1582 300.724 11.3147C300.356 11.4725 299.399 12.5783 298.76 12.8214L298.697 13.5157C298.692 13.5597 298.617 13.6301 298.563 13.6513L297.816 13.9645C297.01 14.3543 296.266 14.9798 296.159 15.3596C296.054 15.7376 294.751 17.1339 294.161 17.7595L293.66 18.3511C293.494 18.5463 292.768 18.0967 293.089 18.8292C293.311 19.3369 292.64 19.377 292.382 19.6357L292.103 19.9158C291.791 20.2172 291.256 20.5089 290.911 20.5638C290.565 20.6196 290.034 21.805 289.818 22.0716C289.6 22.3369 288.55 23.4459 288.029 23.9524L287.614 24.4482C286.866 25.3423 285.716 26.016 285.505 27.2212L285.477 27.3796C285.136 27.5596 284.43 27.9693 283.906 28.2878L283.812 28.881L283.78 29.0797C283.543 29.2979 283.151 29.6194 282.908 29.7974C282.666 29.9731 282.279 30.8101 282.194 30.9635C282.11 31.1161 280.945 32.2844 279.885 33.2866L279.342 34.4682C279.312 34.5326 278.571 34.2444 278.849 34.9591L278.936 35.1857C278.534 35.6489 277.745 36.5265 277.179 37.1346C276.613 37.7428 274.962 39.5325 274.65 39.7111C274.34 39.8887 273.738 40.7717 273.41 41.1973C273.083 41.6243 272.218 42.9071 272.114 43.061C272.008 43.2167 271.321 43.7436 270.91 44.0435C270.5 44.3426 269.72 45.601 269.346 45.8265C268.973 46.0498 267.996 47.8933 267.261 48.9431L265.888 49.0065L265.81 49.0108C265.711 49.16 265.345 49.6759 264.996 50.1578L264.91 50.6781C264.768 51.5424 263.57 51.7014 263.235 52.5995L262.983 53.2687C262.195 53.9271 261.22 54.8021 260.812 55.2145L260.438 55.5849L259.844 56.1694C259.42 56.1317 259.073 56.4151 259.07 56.7986C259.067 57.1821 257.794 57.3923 257.666 57.4624L257.669 57.4999C257.695 57.7599 258.016 58.077 257.505 58.2443L257.141 58.3639C256.669 58.3154 256.31 58.4131 256.342 58.5847C256.373 58.7563 255.491 59.5706 254.528 60.2988L253.586 60.5683C252.864 60.7742 252.997 61.5599 252.269 61.5921L251.656 61.6178C250.957 61.807 250.138 62.064 249.833 62.1876C249.528 62.3099 248.566 62.6106 248.383 62.6455C248.204 62.68 247.365 62.4432 246.871 62.1827L246.627 62.3202L245.839 62.7632C245.732 62.3181 244.987 61.6528 244.183 61.2824L243.402 61.0333L242.577 60.77C241.865 60.1856 241.225 59.6667 241.158 59.6185C241.09 59.5698 240.728 59.0491 240.323 58.5221L240.025 57.9822L239.533 57.093C239.468 56.311 239.4 55.3547 239.387 54.9699L239.002 55.1238C237.961 55.5424 238.151 54.9994 238.385 54.4734C238.735 53.6845 238.909 52.8769 239.21 52.0943C239.562 51.1839 239.029 50.7398 238.694 50.1643L238.659 50.1058C238.485 50.122 238.181 50.1157 237.982 50.093C237.784 50.0681 238.231 49.2572 238.354 49.0364L238.372 48.8448L238.423 48.2695C238.443 47.5411 238.637 47.0969 238.855 47.2839L238.984 47.3821C239.167 47.522 238.468 48.0737 239.187 47.9224C239.29 47.9006 239.406 47.5549 239.465 47.3542C239.515 47.1849 239.494 47.0087 239.503 46.8358L239.545 46.0274C238.742 46.1657 238.26 46.1346 238.474 45.9617C238.687 45.7875 239.211 45.2506 238.991 45.2978C238.772 45.3464 238.381 45.2747 238.455 45.0681C238.529 44.8615 239.13 44.3512 238.959 44.0816C238.789 43.812 238.4 42.8481 238.705 42.9064C239.012 42.9638 239.414 42.9067 239.148 42.6939C238.881 42.4811 239.091 41.4745 239.179 41.4756C239.267 41.4759 239.604 41.3433 239.537 41.1788C239.47 41.0165 239.132 40.6298 239.006 40.8594L238.897 40.9361C238.8 41.0052 238.53 41.0275 238.528 41.0155L238.477 40.6312C238.46 40.2098 238.504 39.4075 238.577 38.8486C238.646 38.2879 239.055 36.1408 239.127 35.2586L238.972 34.4887L238.891 34.0988C238.917 33.6445 239.083 33.1124 239.258 32.917C239.433 32.7216 239.46 32.233 239.602 32.3706C239.745 32.5074 240.091 32.5966 240.051 32.261C240.012 31.9267 239.263 31.4638 239.531 31.2768C239.801 31.0889 240.468 30.2308 240.604 29.8381L240.462 29.7141C239.939 29.2539 240.153 30.0415 239.963 30.0564C239.813 30.0688 239.545 29.8797 239.568 29.8045L239.675 29.4662C239.876 29.1027 240.237 28.5845 240.478 28.3189L240.636 28.0517C240.72 27.9105 240.71 27.5783 240.647 27.5675C240.346 27.5067 239.931 27.6243 239.713 27.4923L239.542 27.3883C239.55 27.0393 239.329 26.8183 239.052 26.8999L239.033 26.9796C238.88 27.6229 238.327 28.06 237.98 28.5817C237.609 29.1437 236.594 28.7328 236.646 29.6822C236.689 30.4499 235.696 30.579 235.217 31.0385C235.035 31.2117 234.948 31.4774 234.856 31.71C234.592 32.379 234.135 32.8826 233.519 33.3781C232.972 33.8145 232.514 34.4295 232.196 35.0241L231.624 36.0923C230.83 37.2266 229.953 38.1374 229.675 38.1142C229.398 38.0923 228.583 38.1313 228.742 38.2728C228.903 38.4149 229.296 38.8126 229.299 38.88L229.225 38.9439L227.909 40.0761C227.161 41.6396 226.049 43.7551 225.435 44.7805L224.624 45.559C224.237 45.93 224.586 46.1002 224.496 46.3469C224.418 46.5596 224.195 46.7534 224.025 46.9498C223.456 47.6067 222.805 48.2313 222.733 49.0814L222.723 49.1815C222.616 49.3015 222.184 49.7612 221.763 50.2027C221.34 50.6451 220.218 52.8908 219.776 53.9338L219.102 54.7098L217.258 56.8324C215.895 59.4014 214.446 62.0983 214.039 62.826C213.631 63.5558 212.262 65.7437 212.173 66.1838L211.917 66.4266L211.279 67.0299C211.002 67.8029 210.693 68.7483 210.593 69.133C210.492 69.5178 209.075 70.648 208.616 71.3317C208.159 72.0138 207.306 74.4349 207.116 74.9386C206.924 75.4432 205.691 76.8196 205.517 77.0899C205.34 77.3596 204.632 79.0632 204.149 80.2409L203.371 81.1281L202.91 81.6528C202.856 82.1342 202.656 82.7404 202.464 83.001C202.272 83.2616 201.833 84.1202 201.77 84.2707C201.71 84.4216 201.333 84.8743 201.159 85.1767C200.984 85.4791 200.185 86.4341 199.796 86.9565L199.573 87.4829L199.132 88.5272C198.498 89.6367 197.917 90.6738 197.841 90.8306C197.763 90.9891 197.015 91.7242 196.516 92.1621L196.161 92.6162L195.841 93.0217C195.601 93.5327 195.152 94.3338 194.845 94.8044L194.568 95.2335C194.254 95.7141 193.657 96.2748 193.702 96.6647L193.772 97.2728C193.354 97.4999 192.688 98.096 192.294 98.5976C191.899 99.0978 190.171 101.321 189.304 102.413L188.294 103.094L187.218 103.819C186.256 104.747 184.4 106.208 183.092 107.065L181.734 107.19L181.308 107.229C181.153 107.423 180.748 107.604 180.408 107.633L180.208 107.569C179.683 107.403 179.582 108.068 179.415 108.02L178.799 107.843C178.173 107.546 177.403 107.084 177.089 106.816C176.774 106.547 175.394 106.487 175.214 106.479L175.194 106.411C174.96 105.65 174.163 105.598 173.508 105.321C172.889 105.058 172.478 104.489 171.888 104.17L171.044 103.712C170.488 102.918 169.678 101.689 169.243 100.98L169.331 100.233C169.437 99.3371 169.11 98.6909 168.874 97.9406L168.672 97.3017C168.904 96.4105 169.448 95.6434 169.877 95.5971L169.824 95.1629L169.775 94.7746C169.555 94.411 169.21 93.7987 169.011 93.41L169.377 92.9918L169.505 92.8469C169.815 92.6414 169.809 92.425 169.487 92.3664L169.274 92.3865L169.026 92.4066C168.717 92.4985 168.751 92.3473 169.104 92.0733C169.458 91.7985 169.67 90.8015 169.463 90.8989C169.254 90.9957 168.742 90.9233 168.871 90.4771C169 90.031 168.316 88.8144 168.173 88.4257C168.03 88.037 168.668 86.8686 168.434 86.6918L168.473 86.5465L168.567 86.1867C168.687 85.772 168.364 85.3751 167.847 85.3084L168.534 84.8749L169.187 84.4612C169.025 84.0796 169.038 83.5994 169.216 83.3944L169.177 83.3349L169.022 83.1058C168.781 82.9019 168.619 82.5907 168.668 82.4153C168.717 82.2376 168.697 81.7074 168.442 81.5362L168.516 81.1812L168.614 80.7132C168.684 80.2009 168.387 79.4475 167.953 79.0369L168.717 78.5229L169.247 78.1667C169.248 77.6964 169.2 77.1796 169.144 77.0162C169.084 76.8531 167.809 77.4631 166.474 78.8327C165.142 80.2027 161.689 84.7643 161.118 85.6462C160.545 86.5277 158.246 88.9646 157.784 89.3809C157.322 89.796 156.856 91.6655 156.555 92.179C156.256 92.6938 155.027 94.3737 154.633 94.8432C154.238 95.3113 153.482 96.8799 153.371 97.0666C153.261 97.2526 152.401 98.0982 151.83 98.674L151.797 99.4351L151.786 99.7203C151.448 100.081 149.663 102.391 147.815 104.858L146.854 107.391L146.64 107.955C146.27 108.578 145.722 109.333 145.419 109.632C145.119 109.93 144.615 111.302 144.446 111.644C144.276 111.984 143.711 113.148 143.569 113.464C143.425 113.78 142.946 114.726 142.856 114.875C142.765 115.025 142.234 115.675 141.936 116.024L141.616 117.074C141.531 117.355 141.34 117.647 141.133 117.892L140.55 118.589C140.251 119.434 139.422 120.934 138.71 121.924L138.387 122.944L138.314 123.17C138.153 123.412 137.863 123.965 137.671 124.403C137.479 124.84 136.427 126.57 136.098 127.332L135.655 127.962L135.163 128.659C134.743 129.455 134.124 130.632 133.791 131.273C133.457 131.915 132.189 133.742 132.117 134.029C132.042 134.315 131.827 135.035 132.387 135.126L131.426 135.665C131.135 135.826 131.025 136.298 130.787 136.605C130.512 136.96 130.125 137.263 129.898 137.632C129.69 137.971 129.75 138.519 129.487 138.712C128.557 139.389 128.488 140.354 127.957 141.154C126.923 142.714 125.97 144.31 125.016 145.902L124.554 146.674C124.09 147.539 122.687 149.528 121.435 151.099L120.765 152.726L120.554 153.239C120.049 153.489 119.264 154.21 118.807 154.842C118.351 155.474 116.919 157.251 116.437 157.303L116.49 157.923C116.537 158.446 115.891 158.598 115.605 158.944L115.318 159.293C115.089 159.727 113.641 161.676 112.099 163.624L110.398 165.217L110.008 165.583C109.557 165.959 109.015 166.43 108.803 166.63C108.592 166.831 107.349 167.941 106.468 168.625C105.586 169.306 102.722 171.088 102.229 171.345C101.739 171.603 99.8285 171.949 99.192 172.062L98.8359 171.871L96.9866 170.879C94.7717 170.061 92.3397 168.974 91.5842 168.46L90.9062 167.98L90.2122 167.49C89.9667 166.692 89.5588 165.891 89.3063 165.709C89.0516 165.526 88.4896 164.535 88.2625 164.117C88.035 163.696 87.6166 162.403 87.3126 162.317C87.0107 162.232 87.2489 160.941 87.1983 160.469L87.0978 160.041C86.985 159.554 86.7888 159.096 86.7172 158.6L86.6531 158.163C86.6808 157.655 86.6044 156.802 86.4848 156.269L86.4512 155.768C86.4327 155.486 86.5338 155.159 86.6599 154.869C86.8854 154.347 86.7144 153.976 86.591 153.511C86.3515 152.625 86.3169 151.642 86.3699 150.678C86.4015 150.082 86.7776 149.447 86.9494 148.825C87.0764 148.367 86.2244 147.986 87.1103 147.412C87.2047 147.35 86.9797 146.784 86.8807 146.462L86.8586 146.391C86.7533 146.353 86.8006 145.748 86.9649 145.052C87.1288 144.352 87.5878 142.119 87.5012 141.623C87.4146 141.127 88.2636 139.18 88.2797 138.366L88.1772 137.649C88.1462 137.428 87.9778 137.139 88.0835 137.006C88.7979 136.119 88.3622 135.375 88.3269 134.575L88.3244 134.529Z" fill="url(#paint0_linear_526_5356)"/>
<defs>
<linearGradient id="paint0_linear_526_5356" x1="-35.7347" y1="199.036" x2="272.572" y2="12.3592" gradientUnits="userSpaceOnUse">
<stop offset="0.197917" stop-color="#B16CEA"/>
<stop offset="0.557292" stop-color="#FF5E69"/>
<stop offset="0.828125" stop-color="#FF8A56"/>
<stop offset="1" stop-color="#FFA84B"/>
</linearGradient>
</defs>
</svg>
